<?xml version="1.0" encoding="utf-8"?>
<!-- Generator: Adobe Illustrator 19.1.0, SVG Export Plug-In . SVG Version: 6.00 Build 0)  -->
<svg version="1.1" id="Layer_1" xmlns="http://www.w3.org/2000/svg" xmlns:xlink="http://www.w3.org/1999/xlink" x="0px" y="0px"
	 viewBox="82 4 349 129" style="enable-background:new 82 4 349 129;" xml:space="preserve">
<style type="text/css">
	.st0{clip-path:url(#SVGID_4_);}
	.st1{clip-path:url(#SVGID_6_);}
	.st2{clip-path:url(#SVGID_9_);}
	.st3{clip-path:url(#SVGID_17_);}
	.st4{clip-path:url(#SVGID_18_);}
	.st5{clip-path:url(#SVGID_19_);fill:#FF812E;}
	.st6{clip-path:url(#SVGID_19_);fill:#CA6F2D;}
	.st7{clip-path:url(#SVGID_19_);fill:#FFFFFF;}
	.st8{clip-path:url(#SVGID_23_);}
	.st9{clip-path:url(#SVGID_24_);}
	.st10{clip-path:url(#SVGID_27_);}
	.st11{clip-path:url(#SVGID_33_);}
	.st12{clip-path:url(#SVGID_34_);}
	.st13{clip-path:url(#SVGID_35_);fill:#9A2F99;}
	.st14{clip-path:url(#SVGID_35_);fill:#7C3179;}
	.st15{clip-path:url(#SVGID_35_);fill:#FFFFFF;}
	.st16{clip-path:url(#SVGID_39_);}
	.st17{clip-path:url(#SVGID_40_);}
	.st18{clip-path:url(#SVGID_43_);}
	.st19{clip-path:url(#SVGID_49_);}
	.st20{clip-path:url(#SVGID_50_);}
	.st21{clip-path:url(#SVGID_51_);fill:#42AE58;}
	.st22{clip-path:url(#SVGID_51_);fill:#3B954C;}
	.st23{clip-path:url(#SVGID_51_);fill:#FFFFFF;}
	.st24{clip-path:url(#SVGID_53_);}
	.st25{clip-path:url(#SVGID_55_);fill:#FFFFFF;}
</style>
<g id="SVGID_15_">
	<g>
		<defs>
			<rect id="SVGID_1_" x="82" y="4" width="349" height="129"/>
		</defs>
		<defs>
			<rect id="SVGID_2_" x="82" y="4" width="349" height="129"/>
		</defs>
		<defs>
			<rect id="SVGID_3_" x="275.1" y="-15.3" width="178.6" height="167.5"/>
		</defs>
		<clipPath id="SVGID_4_">
			<use xlink:href="#SVGID_1_"  style="overflow:visible;"/>
		</clipPath>
		<clipPath id="SVGID_6_" class="st0">
			<use xlink:href="#SVGID_2_"  style="overflow:visible;"/>
		</clipPath>
		<clipPath id="SVGID_7_" class="st1">
			<use xlink:href="#SVGID_3_"  style="overflow:visible;"/>
		</clipPath>
	</g>
</g>
<g>
	<defs>
		<rect id="SVGID_8_" x="82" y="4" width="349" height="129"/>
	</defs>
	<clipPath id="SVGID_9_">
		<use xlink:href="#SVGID_8_"  style="overflow:visible;"/>
	</clipPath>
	<g class="st2">
		<g>
			<defs>
				<rect id="SVGID_11_" x="285.6" y="-6.6" width="156" height="156"/>
			</defs>
			<clipPath id="SVGID_12_">
				<use xlink:href="#SVGID_11_"  style="overflow:visible;"/>
			</clipPath>
		</g>
		<g>
			<defs>
				<rect id="SVGID_13_" x="82" y="4" width="349" height="129"/>
			</defs>
			<defs>
				<rect id="SVGID_14_" x="82" y="4" width="349" height="129"/>
			</defs>
			<defs>
				<rect id="SVGID_16_" x="82" y="4" width="349" height="129"/>
			</defs>
			<clipPath id="SVGID_17_">
				<use xlink:href="#SVGID_13_"  style="overflow:visible;"/>
			</clipPath>
			<clipPath id="SVGID_18_" class="st3">
				<use xlink:href="#SVGID_14_"  style="overflow:visible;"/>
			</clipPath>
			<clipPath id="SVGID_19_" class="st4">
				<use xlink:href="#SVGID_16_"  style="overflow:visible;"/>
			</clipPath>
			<path class="st5" d="M366.5,133c35.6,0,64.5-28.9,64.5-64.5S402.1,4,366.5,4S302,32.9,302,68.5S330.9,133,366.5,133"/>
			<path class="st6" d="M373.8,40.5l1,3.3l-2,3l-2,4l-1,2v4l5,32l-2,2l-5,3l-1.5,2.7l29.4,29.4c13.7-7,24.5-18.8,30.4-33.1
				C426.1,92.8,373.8,40.5,373.8,40.5z"/>
			<path class="st7" d="M366.5,93.4l6.9-4.6l-5.1-34.7c-0.3,0.1-0.6,0.2-0.9,0.2c-0.3,0.1-0.6,0.1-0.9,0.1s-0.6,0-0.9-0.1
				s-0.6-0.1-0.9-0.2l-5.1,34.7L366.5,93.4z M359.7,43.9c0.9,1.8,1.7,3.1,2.4,4.1c0.8,1.2,1.6,2.1,2.4,2.8c0.8,0.6,1.5,1,2.1,1
				c0.3,0,0.6-0.1,0.9-0.2c0.3-0.1,0.6-0.3,1-0.6l0.1-0.1c0,0,0.1,0,0.1-0.1c1-0.8,1.9-1.9,2.8-3.3c0.9-1.4,1.6-2.6,2-3.6
				c0-0.1,0.1-0.3,0.1-0.3v-0.2c-0.1-0.1-0.3-0.1-0.4-0.1h-13c-0.1,0-0.3,0-0.4,0.1c0,0-0.1,0.1-0.1,0.2
				C359.6,43.6,359.6,43.7,359.7,43.9 M376.3,89.3c0,0.3,0,0.6-0.1,0.8c-0.1,0.2-0.3,0.4-0.5,0.6l-8.4,5.6c-0.1,0.1-0.3,0.1-0.4,0.2
				c-0.1,0-0.3,0.1-0.4,0.1s-0.2,0-0.4-0.1c-0.1,0-0.3-0.1-0.4-0.2l-8.4-5.6c-0.3-0.1-0.4-0.3-0.5-0.6c-0.1-0.2-0.1-0.5-0.1-0.8
				l5.5-36.8c-0.4-0.4-0.8-0.8-1.2-1.3c-0.4-0.5-0.8-1-1.3-1.6c-0.8-1.1-1.4-2.2-1.9-3.1s-0.7-1.4-0.7-1.4c-0.3-0.5-0.4-1.1-0.4-1.6
				s0.2-1,0.5-1.5c0.3-0.4,0.6-0.8,1.1-1s1-0.4,1.7-0.4h13c0.6,0,1.2,0.1,1.6,0.4s0.9,0.6,1.1,1c0.3,0.4,0.4,0.9,0.5,1.5
				c0,0.5-0.1,1.1-0.4,1.6c0,0-0.2,0.5-0.7,1.4s-1.1,2-1.9,3.1c-0.4,0.6-0.8,1.1-1.2,1.6c-0.4,0.5-0.8,0.9-1.2,1.3L376.3,89.3
				L376.3,89.3z"/>
		</g>
	</g>
</g>
<g id="SVGID_10_">
	<g>
		<defs>
			<rect id="SVGID_20_" x="82" y="4" width="349" height="129"/>
		</defs>
		<defs>
			<rect id="SVGID_21_" x="82" y="4" width="349" height="129"/>
		</defs>
		<defs>
			<rect id="SVGID_22_" x="165.1" y="-15.3" width="178.6" height="167.5"/>
		</defs>
		<clipPath id="SVGID_23_">
			<use xlink:href="#SVGID_20_"  style="overflow:visible;"/>
		</clipPath>
		<clipPath id="SVGID_24_" class="st8">
			<use xlink:href="#SVGID_21_"  style="overflow:visible;"/>
		</clipPath>
		<clipPath id="SVGID_25_" class="st9">
			<use xlink:href="#SVGID_22_"  style="overflow:visible;"/>
		</clipPath>
	</g>
</g>
<g>
	<defs>
		<rect id="SVGID_26_" x="82" y="4" width="349" height="129"/>
	</defs>
	<clipPath id="SVGID_27_">
		<use xlink:href="#SVGID_26_"  style="overflow:visible;"/>
	</clipPath>
	<g class="st10">
		<g>
			<defs>
				<rect id="SVGID_28_" x="175.6" y="-6.6" width="156" height="156"/>
			</defs>
			<clipPath id="SVGID_29_">
				<use xlink:href="#SVGID_28_"  style="overflow:visible;"/>
			</clipPath>
		</g>
		<g>
			<defs>
				<rect id="SVGID_30_" x="82" y="4" width="349" height="129"/>
			</defs>
			<defs>
				<rect id="SVGID_31_" x="82" y="4" width="349" height="129"/>
			</defs>
			<defs>
				<rect id="SVGID_32_" x="82" y="4" width="349" height="129"/>
			</defs>
			<clipPath id="SVGID_33_">
				<use xlink:href="#SVGID_30_"  style="overflow:visible;"/>
			</clipPath>
			<clipPath id="SVGID_34_" class="st11">
				<use xlink:href="#SVGID_31_"  style="overflow:visible;"/>
			</clipPath>
			<clipPath id="SVGID_35_" class="st12">
				<use xlink:href="#SVGID_32_"  style="overflow:visible;"/>
			</clipPath>
			<path class="st13" d="M256.5,133c35.6,0,64.5-28.9,64.5-64.5S292.1,4,256.5,4S192,32.9,192,68.5S220.9,133,256.5,133"/>
			<path class="st14" d="M282.9,44.8v4l-1,6l-2,5l-2,4l-3,4.7l-4,4.3l-2,2v2l-2,4l-4,4l-4,3l-2.5,2.7l-5.5,2.3l33.7,33.7
				c18.5-9,32-26.6,35.4-47.6l-37.1-37.1C282.9,41.8,282.9,44.8,282.9,44.8z"/>
			<path class="st15" d="M270.6,70.6c1.8-1.6,3.3-3.3,4.6-5.2c1.3-1.9,2.5-4,3.4-6.3s1.6-4.8,2.2-7.4c0.5-2.6,0.8-5.4,0.8-8.3
				c-2.9,0.1-5.7,0.4-8.3,0.8c-2.6,0.5-5.1,1.2-7.4,2.1c-2.3,0.9-4.4,2.1-6.3,3.4c-1.9,1.3-3.7,2.9-5.2,4.6
				c-2.6,2.9-4.3,5.7-5.1,8.2c-0.8,2.6-1.2,4.1-1.2,4.5c0.2,0.6,0.6,1.3,1.1,2.1c0.4,0.5,0.8,1.1,1.3,1.8c0.5,0.6,1.1,1.2,1.7,1.8
				c0.6,0.6,1.2,1.2,1.8,1.7s1.2,1,1.7,1.4c0.8,0.5,1.5,0.9,2.1,1.1c0.4,0,1.9-0.4,4.5-1.2C265,74.9,267.7,73.2,270.6,70.6
				 M257,87.8c1.9-1.3,3.9-3,6-4.9c2-1.9,3.4-4.1,4.2-6.4c-1.6,0.9-3.1,1.6-4.5,2.1c-1.4,0.5-2.6,0.8-3.5,1
				c-0.1,1.6-0.3,3.2-0.7,4.5C258.1,85.5,257.6,86.7,257,87.8 M237.2,68c1.1-0.5,2.3-1,3.7-1.4s2.9-0.7,4.5-0.8
				c0.2-0.9,0.5-2.1,1-3.5s1.2-2.9,2.1-4.5c-2.3,0.8-4.4,2.2-6.4,4.2C240.2,64,238.5,66,237.2,68 M283.1,40.5h1.4v1.4
				c0,1.8-0.1,3.6-0.2,5.3c-0.1,1.7-0.4,3.4-0.7,5s-0.7,3.2-1.1,4.6c-0.5,1.5-1,2.9-1.6,4.3c-1,2.3-2.2,4.4-3.6,6.3
				c-1.4,1.9-3,3.7-4.8,5.2c-0.3,0.3-0.7,0.6-1,0.8c-0.3,0.3-0.7,0.5-1,0.8c-0.1,1.2-0.4,2.4-0.9,3.6s-1.1,2.5-2,3.7
				c-0.7,1.1-1.6,2.1-2.6,3.1s-2.1,2.1-3.4,3.1c-2.2,1.7-4.1,3.1-5.9,4.1s-2.7,1.5-2.8,1.6s-0.2,0.1-0.3,0.1h-0.3
				c-0.2,0-0.4,0-0.6-0.1c-0.2-0.1-0.4-0.2-0.5-0.5c-0.2-0.3-0.3-0.6-0.2-0.9c0-0.3,0.2-0.6,0.4-0.9c1.1-1.3,2-2.5,2.6-3.6
				c0.5-0.9,1.1-2.1,1.6-3.6c0.5-1.4,0.8-3,0.9-4.8c-1.1-0.4-2.3-1.2-3.5-2.2s-2.1-1.8-2.7-2.5c-0.6-0.6-1.4-1.5-2.5-2.7
				c-1-1.2-1.8-2.4-2.2-3.5c-1.8,0.1-3.3,0.4-4.8,1c-1.4,0.5-2.6,1-3.6,1.6c-1.1,0.7-2.3,1.5-3.6,2.6c-0.1,0.1-0.3,0.3-0.5,0.3
				c-0.2,0.1-0.3,0.1-0.5,0.1c-0.1,0-0.3,0-0.4-0.1c-0.1-0.1-0.3-0.1-0.4-0.2c-0.3-0.2-0.5-0.5-0.5-0.8c-0.1-0.3,0-0.6,0.1-0.9
				c0-0.1,0.6-1,1.6-2.8c1-1.8,2.4-3.7,4.1-5.9c1-1.3,2.1-2.4,3.1-3.4c1.1-1,2.1-1.9,3.1-2.6c1.2-0.9,2.5-1.5,3.7-2s2.5-0.7,3.7-0.8
				c0.2-0.4,0.5-0.7,0.7-1c0.3-0.3,0.6-0.7,0.8-1c1.6-1.8,3.3-3.4,5.2-4.8c1.9-1.4,4-2.6,6.3-3.6c1.4-0.6,2.8-1.1,4.3-1.6
				s3-0.9,4.6-1.1c1.6-0.3,3.3-0.5,5-0.7C279.5,40.6,281.3,40.5,283.1,40.5 M242.1,79.6c0.4,0,0.7,0.1,1.1,0.3
				c0.4,0.2,0.8,0.5,1.1,0.8c0.5,0.5,0.8,0.9,1,1.4s0.2,0.9,0.1,1.4c-0.1,0.5-0.4,1.1-1,1.9s-1.6,1.7-3.1,2.7
				c-1.1,0.8-2.4,1.5-3.9,2.3s-3.2,1.5-5,2.2c0.8-2,1.7-3.9,2.5-5.5s1.7-3,2.5-4.1c0.9-1.2,1.7-2,2.5-2.6
				C240.6,79.9,241.4,79.6,242.1,79.6 M229.9,96.5h0.4c2.7-1,5.1-2,7.2-3c2.1-1,3.9-2,5.4-3.1c1.5-1,2.6-2.1,3.5-3.1
				s1.4-2.1,1.6-3.1c0.2-0.7,0.2-1.5,0-2.5c-0.2-0.9-0.8-1.9-1.8-3c-0.6-0.7-1.3-1.1-2-1.5s-1.4-0.5-2.2-0.5c-1.2,0-2.3,0.4-3.5,1.1
				c-1.1,0.7-2.3,1.9-3.4,3.4s-2.2,3.4-3.3,5.6s-2.2,4.8-3.3,7.8c-0.1,0.3-0.1,0.5-0.1,0.8c0.1,0.3,0.2,0.5,0.4,0.7
				c0.1,0.1,0.3,0.2,0.5,0.3C229.6,96.5,229.7,96.5,229.9,96.5 M266.3,54.5c1.2,0,2.2,0.4,3,1.2s1.2,1.8,1.2,3s-0.4,2.2-1.2,3
				s-1.8,1.2-3,1.2s-2.2-0.4-3-1.2s-1.2-1.8-1.2-3s0.4-2.2,1.2-3S265.1,54.5,266.3,54.5 M266.3,65.7c1.9,0,3.6-0.7,4.9-2.1
				c1.4-1.4,2.1-3,2.1-4.9s-0.7-3.6-2.1-4.9c-1.4-1.4-3-2.1-4.9-2.1s-3.6,0.7-4.9,2.1c-1.4,1.4-2.1,3-2.1,4.9s0.7,3.6,2.1,4.9
				C262.7,65,264.4,65.7,266.3,65.7"/>
		</g>
	</g>
</g>
<g id="SVGID_5_">
	<g>
		<defs>
			<rect id="SVGID_36_" x="82" y="4" width="349" height="129"/>
		</defs>
		<defs>
			<rect id="SVGID_37_" x="82" y="4" width="349" height="129"/>
		</defs>
		<defs>
			<rect id="SVGID_38_" x="55.1" y="-15.3" width="178.6" height="167.5"/>
		</defs>
		<clipPath id="SVGID_39_">
			<use xlink:href="#SVGID_36_"  style="overflow:visible;"/>
		</clipPath>
		<clipPath id="SVGID_40_" class="st16">
			<use xlink:href="#SVGID_37_"  style="overflow:visible;"/>
		</clipPath>
		<clipPath id="SVGID_41_" class="st17">
			<use xlink:href="#SVGID_38_"  style="overflow:visible;"/>
		</clipPath>
	</g>
</g>
<g>
	<defs>
		<rect id="SVGID_42_" x="82" y="4" width="349" height="129"/>
	</defs>
	<clipPath id="SVGID_43_">
		<use xlink:href="#SVGID_42_"  style="overflow:visible;"/>
	</clipPath>
	<g class="st18">
		<g>
			<defs>
				<rect id="SVGID_44_" x="65.6" y="-6.6" width="156" height="156"/>
			</defs>
			<clipPath id="SVGID_45_">
				<use xlink:href="#SVGID_44_"  style="overflow:visible;"/>
			</clipPath>
		</g>
		<g>
			<defs>
				<rect id="SVGID_46_" x="82" y="4" width="349" height="129"/>
			</defs>
			<defs>
				<rect id="SVGID_47_" x="82" y="4" width="349" height="129"/>
			</defs>
			<defs>
				<rect id="SVGID_48_" x="82" y="4" width="349" height="129"/>
			</defs>
			<clipPath id="SVGID_49_">
				<use xlink:href="#SVGID_46_"  style="overflow:visible;"/>
			</clipPath>
			<clipPath id="SVGID_50_" class="st19">
				<use xlink:href="#SVGID_47_"  style="overflow:visible;"/>
			</clipPath>
			<clipPath id="SVGID_51_" class="st20">
				<use xlink:href="#SVGID_48_"  style="overflow:visible;"/>
			</clipPath>
			<path class="st21" d="M146.5,133c35.6,0,64.5-28.9,64.5-64.5S182.1,4,146.5,4S82,32.9,82,68.5S110.9,133,146.5,133"/>
			<path class="st22" d="M164.5,66.4v3.5l-2,1l-2,2v3l1,3l-1,2l-2,3l-1,2v2l-3,3l-5,2h-7l-6-1l-3-1l37.4,37.4
				c13.8-5.6,25.1-15.9,32.2-28.8l-46.6-46.7l3,5l5,5C164.5,62.8,164.5,66.4,164.5,66.4z"/>
			<path class="st23" d="M124.8,67.8c0.3,0,0.6-0.1,0.8-0.3c0.3-0.2,0.4-0.4,0.5-0.8c0.7-2.3,1.7-4.5,3.2-6.5s3.2-3.6,5.3-4.9
				c0.3-0.2,0.5-0.5,0.6-0.8c0.1-0.4,0-0.7-0.2-1.1c-0.2-0.3-0.5-0.5-0.9-0.6c-0.4-0.1-0.7,0-1,0.2c-2.4,1.5-4.4,3.4-6.1,5.6
				c-1.7,2.2-2.9,4.7-3.6,7.4c-0.1,0.4-0.1,0.8,0.1,1.1c0.2,0.3,0.5,0.5,0.8,0.7H124.8 M165.3,67.8h0.4c0.4-0.1,0.6-0.3,0.8-0.7
				c0.2-0.3,0.2-0.7,0.1-1.1c-0.7-2.7-1.9-5.1-3.6-7.4c-1.7-2.2-3.7-4.1-6.1-5.6c-0.3-0.2-0.6-0.3-1-0.2c-0.4,0.1-0.7,0.3-0.9,0.6
				c-0.2,0.3-0.3,0.7-0.2,1.1c0.1,0.4,0.3,0.7,0.6,0.8c2.1,1.3,3.8,2.9,5.3,4.9s2.5,4.1,3.2,6.5c0.1,0.3,0.2,0.6,0.5,0.8
				C164.8,67.7,165,67.8,165.3,67.8 M145.1,94.4c1.8,0,3.6-0.2,5.4-0.7c1.8-0.4,3.5-1.1,5.1-1.9c0.4-0.2,0.6-0.5,0.7-0.8
				c0.1-0.4,0.1-0.7-0.1-1.1c-0.2-0.3-0.5-0.5-0.8-0.7c-0.4-0.1-0.7-0.1-1.1,0.1c-1.4,0.7-2.9,1.3-4.4,1.7c-1.6,0.4-3.1,0.6-4.7,0.6
				c-1.6,0-3.2-0.2-4.7-0.6s-3-0.9-4.4-1.7c-0.4-0.2-0.7-0.2-1.1-0.1c-0.4,0.1-0.6,0.3-0.8,0.7c-0.2,0.4-0.2,0.7-0.1,1.1
				c0.1,0.4,0.3,0.6,0.7,0.8c1.6,0.8,3.3,1.5,5.1,1.9C141.5,94.2,143.3,94.4,145.1,94.4 M159.2,86h10.9c-0.1-1-0.6-2.2-1.3-3.6
				c-0.7-1.4-2.1-2.1-4.1-2.1c-1.1,0-2.1,0.3-2.9,0.8c-0.8,0.5-1.4,1.4-1.9,2.5c-0.2,0.4-0.3,0.8-0.4,1.2
				C159.3,85.3,159.3,85.7,159.2,86 M161.9,74.8c0,0.8,0.3,1.4,0.8,2c0.5,0.5,1.2,0.8,2,0.8c0.8,0,1.5-0.3,2-0.8s0.8-1.2,0.8-2
				s-0.3-1.4-0.8-2c-0.5-0.5-1.2-0.8-2-0.8c-0.8,0-1.4,0.3-2,0.8C162.1,73.4,161.9,74,161.9,74.8 M173.1,87.3c0,0.5-0.1,0.8-0.4,1.1
				c-0.3,0.3-0.6,0.4-1,0.4h-14c-0.4,0-0.7-0.1-1-0.4s-0.4-0.6-0.4-1c0,0,0-0.5,0.1-1.5s0.4-2,0.9-3.2c0.3-0.7,0.6-1.4,1.1-2
				c0.4-0.6,0.9-1.1,1.4-1.5c0.1-0.1,0.3-0.2,0.4-0.3c0.1-0.1,0.3-0.2,0.4-0.3c-0.5-0.5-0.8-1.1-1.1-1.8c-0.3-0.7-0.4-1.3-0.4-2.1
				c0-1.6,0.5-2.9,1.6-4s2.4-1.6,3.9-1.6c1.6,0,2.9,0.5,4,1.6c1.1,1.1,1.6,2.4,1.6,4c0,0.7-0.1,1.4-0.4,2.1
				c-0.3,0.7-0.6,1.2-1.1,1.8c0.1,0.1,0.3,0.2,0.4,0.3c0.1,0.1,0.3,0.2,0.4,0.3c0.5,0.4,1,0.9,1.4,1.5c0.4,0.6,0.8,1.2,1.1,2
				c0.4,1,0.7,2,0.8,2.9C173,86.5,173.1,87.1,173.1,87.3 M120,86h11c-0.2-1-0.6-2.2-1.4-3.6c-0.7-1.4-2.1-2.1-4.1-2.1
				c-1.2,0-2.2,0.3-3,0.8s-1.4,1.4-1.9,2.5c-0.1,0.4-0.3,0.8-0.4,1.2C120.1,85.3,120.1,85.7,120,86 M122.7,74.8c0,0.8,0.3,1.4,0.8,2
				c0.5,0.5,1.2,0.8,2,0.8c0.8,0,1.4-0.3,2-0.8c0.5-0.5,0.8-1.2,0.8-2s-0.3-1.4-0.8-2c-0.5-0.5-1.2-0.8-2-0.8c-0.8,0-1.5,0.3-2,0.8
				C122.9,73.4,122.7,74,122.7,74.8 M133.9,87.3c0,0.5-0.1,0.8-0.4,1.1c-0.3,0.3-0.6,0.4-1,0.4h-14c-0.4,0-0.7-0.1-1-0.4
				c-0.3-0.3-0.4-0.6-0.4-1c0,0,0-0.5,0.1-1.5c0.1-1,0.4-2,0.8-3.2c0.3-0.7,0.6-1.4,1.1-2c0.4-0.6,0.9-1.1,1.4-1.5
				c0.1-0.1,0.2-0.2,0.4-0.3c0.1-0.1,0.3-0.2,0.4-0.3c-0.5-0.5-0.8-1.1-1.1-1.8c-0.3-0.7-0.4-1.3-0.4-2.1c0-1.6,0.5-2.9,1.6-4
				s2.4-1.6,4-1.6c1.5,0,2.8,0.5,3.9,1.6c1.1,1.1,1.6,2.4,1.6,4c0,0.7-0.1,1.4-0.4,2.1c-0.3,0.7-0.6,1.2-1.1,1.8
				c0.1,0.1,0.3,0.2,0.4,0.3c0.1,0.1,0.3,0.2,0.4,0.3c0.5,0.4,1,0.9,1.4,1.5c0.4,0.6,0.8,1.2,1.1,2c0.4,1,0.7,2,0.8,2.9
				C133.8,86.5,133.9,87.1,133.9,87.3 M139.6,55.2h10.9c-0.1-1-0.6-2.2-1.3-3.6c-0.7-1.3-2.1-2-4.1-2c-1.2,0-2.2,0.3-3,0.8
				c-0.8,0.5-1.4,1.4-1.9,2.5c-0.2,0.4-0.3,0.8-0.4,1.2C139.8,54.5,139.7,54.8,139.6,55.2 M142.3,44c0,0.8,0.3,1.4,0.8,2
				c0.5,0.5,1.2,0.8,2,0.8c0.8,0,1.4-0.3,2-0.8c0.5-0.5,0.8-1.2,0.8-2s-0.3-1.5-0.8-2s-1.2-0.8-2-0.8c-0.8,0-1.4,0.3-2,0.8
				C142.6,42.5,142.3,43.2,142.3,44 M153.5,56.5L153.5,56.5c0,0.5-0.1,0.8-0.4,1.1c-0.3,0.3-0.6,0.4-1,0.4h-14c-0.4,0-0.7-0.1-1-0.4
				c-0.3-0.3-0.4-0.6-0.4-1c0,0,0-0.5,0.1-1.5c0.1-1,0.4-2.1,0.8-3.2c0.3-0.7,0.7-1.3,1.1-1.9c0.4-0.6,0.9-1.1,1.4-1.5
				c0.1-0.1,0.3-0.2,0.4-0.3c0.1-0.1,0.3-0.2,0.5-0.2c-0.5-0.5-0.8-1.1-1.1-1.8c-0.3-0.7-0.4-1.3-0.4-2.1c0-1.6,0.5-2.9,1.6-4
				c1.1-1.1,2.4-1.6,3.9-1.6s2.8,0.5,3.9,1.6s1.6,2.4,1.6,4c0,0.7-0.1,1.4-0.4,2.1c-0.3,0.7-0.6,1.2-1.1,1.8
				c0.2,0.1,0.3,0.2,0.5,0.2c0.1,0.1,0.3,0.2,0.4,0.3c0.5,0.4,1,0.9,1.4,1.5c0.4,0.6,0.8,1.2,1.1,1.9c0.4,1.1,0.7,2,0.8,3
				C153.4,55.7,153.5,56.3,153.5,56.5"/>
		</g>
	</g>
</g>
<g>
	<defs>
		<rect id="SVGID_52_" x="82" y="4" width="349" height="129"/>
	</defs>
	<clipPath id="SVGID_53_">
		<use xlink:href="#SVGID_52_"  style="overflow:visible;"/>
	</clipPath>
	<g class="st24">
		<g>
			<defs>
				<rect id="SVGID_54_" x="82" y="4" width="349" height="129"/>
			</defs>
			<clipPath id="SVGID_55_">
				<use xlink:href="#SVGID_54_"  style="overflow:visible;"/>
			</clipPath>
			<path class="st25" d="M124.8,67.8c0.3,0,0.6-0.1,0.8-0.3c0.3-0.2,0.4-0.4,0.5-0.8c0.7-2.3,1.7-4.5,3.2-6.5s3.2-3.6,5.3-4.9
				c0.3-0.2,0.5-0.5,0.6-0.8c0.1-0.4,0-0.7-0.2-1.1c-0.2-0.3-0.5-0.5-0.9-0.6c-0.4-0.1-0.7,0-1,0.2c-2.4,1.5-4.4,3.4-6.1,5.6
				c-1.7,2.2-2.9,4.7-3.6,7.4c-0.1,0.4-0.1,0.8,0.1,1.1c0.2,0.3,0.5,0.5,0.8,0.7H124.8 M165.3,67.8h0.4c0.4-0.1,0.6-0.3,0.8-0.7
				c0.2-0.3,0.2-0.7,0.1-1.1c-0.7-2.7-1.9-5.1-3.6-7.4c-1.7-2.2-3.7-4.1-6.1-5.6c-0.3-0.2-0.6-0.3-1-0.2c-0.4,0.1-0.7,0.3-0.9,0.6
				c-0.2,0.3-0.3,0.7-0.2,1.1c0.1,0.4,0.3,0.7,0.6,0.8c2.1,1.3,3.8,2.9,5.3,4.9s2.5,4.1,3.2,6.5c0.1,0.3,0.2,0.6,0.5,0.8
				C164.8,67.7,165,67.8,165.3,67.8 M145.1,94.4c1.8,0,3.6-0.2,5.4-0.7c1.8-0.4,3.5-1.1,5.1-1.9c0.4-0.2,0.6-0.5,0.7-0.8
				c0.1-0.4,0.1-0.7-0.1-1.1c-0.2-0.3-0.5-0.5-0.8-0.7c-0.4-0.1-0.7-0.1-1.1,0.1c-1.4,0.7-2.9,1.3-4.4,1.7c-1.6,0.4-3.1,0.6-4.7,0.6
				c-1.6,0-3.2-0.2-4.7-0.6s-3-0.9-4.4-1.7c-0.4-0.2-0.7-0.2-1.1-0.1c-0.4,0.1-0.6,0.3-0.8,0.7c-0.2,0.4-0.2,0.7-0.1,1.1
				c0.1,0.4,0.3,0.6,0.7,0.8c1.6,0.8,3.3,1.5,5.1,1.9C141.5,94.2,143.3,94.4,145.1,94.4 M159.2,86h10.9c-0.1-1-0.6-2.2-1.3-3.6
				c-0.7-1.4-2.1-2.1-4.1-2.1c-1.1,0-2.1,0.3-2.9,0.8c-0.8,0.5-1.4,1.4-1.9,2.5c-0.2,0.4-0.3,0.8-0.4,1.2
				C159.3,85.3,159.3,85.7,159.2,86 M161.9,74.8c0,0.8,0.3,1.4,0.8,2c0.5,0.5,1.2,0.8,2,0.8c0.8,0,1.5-0.3,2-0.8s0.8-1.2,0.8-2
				s-0.3-1.4-0.8-2c-0.5-0.5-1.2-0.8-2-0.8c-0.8,0-1.4,0.3-2,0.8C162.1,73.4,161.9,74,161.9,74.8 M173.1,87.3c0,0.5-0.1,0.8-0.4,1.1
				c-0.3,0.3-0.6,0.4-1,0.4h-14c-0.4,0-0.7-0.1-1-0.4s-0.4-0.6-0.4-1c0,0,0-0.5,0.1-1.5s0.4-2,0.9-3.2c0.3-0.7,0.6-1.4,1.1-2
				c0.4-0.6,0.9-1.1,1.4-1.5c0.1-0.1,0.3-0.2,0.4-0.3c0.1-0.1,0.3-0.2,0.4-0.3c-0.5-0.5-0.8-1.1-1.1-1.8c-0.3-0.7-0.4-1.3-0.4-2.1
				c0-1.6,0.5-2.9,1.6-4s2.4-1.6,3.9-1.6c1.6,0,2.9,0.5,4,1.6c1.1,1.1,1.6,2.4,1.6,4c0,0.7-0.1,1.4-0.4,2.1
				c-0.3,0.7-0.6,1.2-1.1,1.8c0.1,0.1,0.3,0.2,0.4,0.3c0.1,0.1,0.3,0.2,0.4,0.3c0.5,0.4,1,0.9,1.4,1.5c0.4,0.6,0.8,1.2,1.1,2
				c0.4,1,0.7,2,0.8,2.9C173,86.5,173.1,87.1,173.1,87.3 M120,86h11c-0.2-1-0.6-2.2-1.4-3.6c-0.7-1.4-2.1-2.1-4.1-2.1
				c-1.2,0-2.2,0.3-3,0.8s-1.4,1.4-1.9,2.5c-0.1,0.4-0.3,0.8-0.4,1.2C120.1,85.3,120.1,85.7,120,86 M122.7,74.8c0,0.8,0.3,1.4,0.8,2
				c0.5,0.5,1.2,0.8,2,0.8c0.8,0,1.4-0.3,2-0.8c0.5-0.5,0.8-1.2,0.8-2s-0.3-1.4-0.8-2c-0.5-0.5-1.2-0.8-2-0.8c-0.8,0-1.5,0.3-2,0.8
				C122.9,73.4,122.7,74,122.7,74.8 M133.9,87.3c0,0.5-0.1,0.8-0.4,1.1c-0.3,0.3-0.6,0.4-1,0.4h-14c-0.4,0-0.7-0.1-1-0.4
				c-0.3-0.3-0.4-0.6-0.4-1c0,0,0-0.5,0.1-1.5c0.1-1,0.4-2,0.8-3.2c0.3-0.7,0.6-1.4,1.1-2c0.4-0.6,0.9-1.1,1.4-1.5
				c0.1-0.1,0.2-0.2,0.4-0.3c0.1-0.1,0.3-0.2,0.4-0.3c-0.5-0.5-0.8-1.1-1.1-1.8c-0.3-0.7-0.4-1.3-0.4-2.1c0-1.6,0.5-2.9,1.6-4
				s2.4-1.6,4-1.6c1.5,0,2.8,0.5,3.9,1.6c1.1,1.1,1.6,2.4,1.6,4c0,0.7-0.1,1.4-0.4,2.1c-0.3,0.7-0.6,1.2-1.1,1.8
				c0.1,0.1,0.3,0.2,0.4,0.3c0.1,0.1,0.3,0.2,0.4,0.3c0.5,0.4,1,0.9,1.4,1.5c0.4,0.6,0.8,1.2,1.1,2c0.4,1,0.7,2,0.8,2.9
				C133.8,86.5,133.9,87.1,133.9,87.3 M139.6,55.2h10.9c-0.1-1-0.6-2.2-1.3-3.6c-0.7-1.3-2.1-2-4.1-2c-1.2,0-2.2,0.3-3,0.8
				c-0.8,0.5-1.4,1.4-1.9,2.5c-0.2,0.4-0.3,0.8-0.4,1.2C139.8,54.5,139.7,54.8,139.6,55.2 M142.3,44c0,0.8,0.3,1.4,0.8,2
				c0.5,0.5,1.2,0.8,2,0.8c0.8,0,1.4-0.3,2-0.8c0.5-0.5,0.8-1.2,0.8-2s-0.3-1.5-0.8-2s-1.2-0.8-2-0.8c-0.8,0-1.4,0.3-2,0.8
				C142.6,42.5,142.3,43.2,142.3,44 M153.5,56.5L153.5,56.5c0,0.5-0.1,0.8-0.4,1.1c-0.3,0.3-0.6,0.4-1,0.4h-14c-0.4,0-0.7-0.1-1-0.4
				c-0.3-0.3-0.4-0.6-0.4-1c0,0,0-0.5,0.1-1.5c0.1-1,0.4-2.1,0.8-3.2c0.3-0.7,0.7-1.3,1.1-1.9c0.4-0.6,0.9-1.1,1.4-1.5
				c0.1-0.1,0.3-0.2,0.4-0.3c0.1-0.1,0.3-0.2,0.5-0.2c-0.5-0.5-0.8-1.1-1.1-1.8c-0.3-0.7-0.4-1.3-0.4-2.1c0-1.6,0.5-2.9,1.6-4
				c1.1-1.1,2.4-1.6,3.9-1.6s2.8,0.5,3.9,1.6s1.6,2.4,1.6,4c0,0.7-0.1,1.4-0.4,2.1c-0.3,0.7-0.6,1.2-1.1,1.8
				c0.2,0.1,0.3,0.2,0.5,0.2c0.1,0.1,0.3,0.2,0.4,0.3c0.5,0.4,1,0.9,1.4,1.5c0.4,0.6,0.8,1.2,1.1,1.9c0.4,1.1,0.7,2,0.8,3
				C153.4,55.7,153.5,56.3,153.5,56.5 M270.6,70.6c1.8-1.6,3.3-3.3,4.6-5.2c1.3-1.9,2.5-4,3.4-6.3s1.6-4.8,2.2-7.4
				c0.5-2.6,0.8-5.4,0.8-8.3c-2.9,0.1-5.7,0.4-8.3,0.8c-2.6,0.5-5.1,1.2-7.4,2.1c-2.3,0.9-4.4,2.1-6.3,3.4c-1.9,1.3-3.7,2.9-5.2,4.6
				c-2.6,2.9-4.3,5.7-5.1,8.2c-0.8,2.6-1.2,4.1-1.2,4.5c0.2,0.6,0.6,1.3,1.1,2.1c0.4,0.5,0.8,1.1,1.3,1.8c0.5,0.6,1.1,1.2,1.7,1.8
				c0.6,0.6,1.2,1.2,1.8,1.7s1.2,1,1.7,1.4c0.8,0.5,1.5,0.9,2.1,1.1c0.4,0,1.9-0.4,4.5-1.2C265,74.9,267.7,73.2,270.6,70.6
				 M257,87.8c1.9-1.3,3.9-3,6-4.9c2-1.9,3.4-4.1,4.2-6.4c-1.6,0.9-3.1,1.6-4.5,2.1c-1.4,0.5-2.6,0.8-3.5,1
				c-0.1,1.6-0.3,3.2-0.7,4.5C258.1,85.5,257.6,86.7,257,87.8 M237.2,68c1.1-0.5,2.3-1,3.7-1.4s2.9-0.7,4.5-0.8
				c0.2-0.9,0.5-2.1,1-3.5s1.2-2.9,2.1-4.5c-2.3,0.8-4.4,2.2-6.4,4.2C240.2,64,238.5,66,237.2,68 M283.1,40.5h1.4v1.4
				c0,1.8-0.1,3.6-0.2,5.3c-0.1,1.7-0.4,3.4-0.7,5s-0.7,3.2-1.1,4.6c-0.5,1.5-1,2.9-1.6,4.3c-1,2.3-2.2,4.4-3.6,6.3
				c-1.4,1.9-3,3.7-4.8,5.2c-0.3,0.3-0.7,0.6-1,0.8c-0.3,0.3-0.7,0.5-1,0.8c-0.1,1.2-0.4,2.4-0.9,3.6s-1.1,2.5-2,3.7
				c-0.7,1.1-1.6,2.1-2.6,3.1s-2.1,2.1-3.4,3.1c-2.2,1.7-4.1,3.1-5.9,4.1s-2.7,1.5-2.8,1.6s-0.2,0.1-0.3,0.1h-0.3
				c-0.2,0-0.4,0-0.6-0.1c-0.2-0.1-0.4-0.2-0.5-0.5c-0.2-0.3-0.3-0.6-0.2-0.9c0-0.3,0.2-0.6,0.4-0.9c1.1-1.3,2-2.5,2.6-3.6
				c0.5-0.9,1.1-2.1,1.6-3.6c0.5-1.4,0.8-3,0.9-4.8c-1.1-0.4-2.3-1.2-3.5-2.2s-2.1-1.8-2.7-2.5c-0.6-0.6-1.4-1.5-2.5-2.7
				c-1-1.2-1.8-2.4-2.2-3.5c-1.8,0.1-3.3,0.4-4.8,1c-1.4,0.5-2.6,1-3.6,1.6c-1.1,0.7-2.3,1.5-3.6,2.6c-0.1,0.1-0.3,0.3-0.5,0.3
				c-0.2,0.1-0.3,0.1-0.5,0.1c-0.1,0-0.3,0-0.4-0.1c-0.1-0.1-0.3-0.1-0.4-0.2c-0.3-0.2-0.5-0.5-0.5-0.8c-0.1-0.3,0-0.6,0.1-0.9
				c0-0.1,0.6-1,1.6-2.8c1-1.8,2.4-3.7,4.1-5.9c1-1.3,2.1-2.4,3.1-3.4c1.1-1,2.1-1.9,3.1-2.6c1.2-0.9,2.5-1.5,3.7-2s2.5-0.7,3.7-0.8
				c0.2-0.4,0.5-0.7,0.7-1c0.3-0.3,0.6-0.7,0.8-1c1.6-1.8,3.3-3.4,5.2-4.8c1.9-1.4,4-2.6,6.3-3.6c1.4-0.6,2.8-1.1,4.3-1.6
				s3-0.9,4.6-1.1c1.6-0.3,3.3-0.5,5-0.7C279.5,40.6,281.3,40.5,283.1,40.5 M242.1,79.6c0.4,0,0.7,0.1,1.1,0.3
				c0.4,0.2,0.8,0.5,1.1,0.8c0.5,0.5,0.8,0.9,1,1.4s0.2,0.9,0.1,1.4c-0.1,0.5-0.4,1.1-1,1.9s-1.6,1.7-3.1,2.7
				c-1.1,0.8-2.4,1.5-3.9,2.3s-3.2,1.5-5,2.2c0.8-2,1.7-3.9,2.5-5.5s1.7-3,2.5-4.1c0.9-1.2,1.7-2,2.5-2.6
				C240.6,79.9,241.4,79.6,242.1,79.6 M229.9,96.5h0.4c2.7-1,5.1-2,7.2-3c2.1-1,3.9-2,5.4-3.1c1.5-1,2.6-2.1,3.5-3.1
				s1.4-2.1,1.6-3.1c0.2-0.7,0.2-1.5,0-2.5c-0.2-0.9-0.8-1.9-1.8-3c-0.6-0.7-1.3-1.1-2-1.5s-1.4-0.5-2.2-0.5c-1.2,0-2.3,0.4-3.5,1.1
				c-1.1,0.7-2.3,1.9-3.4,3.4s-2.2,3.4-3.3,5.6s-2.2,4.8-3.3,7.8c-0.1,0.3-0.1,0.5-0.1,0.8c0.1,0.3,0.2,0.5,0.4,0.7
				c0.1,0.1,0.3,0.2,0.5,0.3C229.6,96.5,229.7,96.5,229.9,96.5 M266.3,54.5c1.2,0,2.2,0.4,3,1.2s1.2,1.8,1.2,3s-0.4,2.2-1.2,3
				s-1.8,1.2-3,1.2s-2.2-0.4-3-1.2s-1.2-1.8-1.2-3s0.4-2.2,1.2-3S265.1,54.5,266.3,54.5 M266.3,65.7c1.9,0,3.6-0.7,4.9-2.1
				c1.4-1.4,2.1-3,2.1-4.9s-0.7-3.6-2.1-4.9c-1.4-1.4-3-2.1-4.9-2.1s-3.6,0.7-4.9,2.1c-1.4,1.4-2.1,3-2.1,4.9s0.7,3.6,2.1,4.9
				C262.7,65,264.4,65.7,266.3,65.7 M366.5,93.4l6.9-4.6l-5.1-34.7c-0.3,0.1-0.6,0.2-0.9,0.2c-0.3,0.1-0.6,0.1-0.9,0.1
				s-0.6,0-0.9-0.1s-0.6-0.1-0.9-0.2l-5.1,34.7L366.5,93.4z M359.7,43.9c0.9,1.8,1.7,3.1,2.4,4.1c0.8,1.2,1.6,2.1,2.4,2.8
				c0.8,0.6,1.5,1,2.1,1c0.3,0,0.6-0.1,0.9-0.2c0.3-0.1,0.6-0.3,1-0.6l0.1-0.1c0,0,0.1,0,0.1-0.1c1-0.8,1.9-1.9,2.8-3.3
				c0.9-1.4,1.6-2.6,2-3.6c0-0.1,0.1-0.3,0.1-0.3v-0.2c-0.1-0.1-0.3-0.1-0.4-0.1h-13c-0.1,0-0.3,0-0.4,0.1c0,0-0.1,0.1-0.1,0.2
				C359.6,43.6,359.6,43.7,359.7,43.9 M376.3,89.3c0,0.3,0,0.6-0.1,0.8c-0.1,0.2-0.3,0.4-0.5,0.6l-8.4,5.6c-0.1,0.1-0.3,0.1-0.4,0.2
				c-0.1,0-0.3,0.1-0.4,0.1s-0.2,0-0.4-0.1c-0.1,0-0.3-0.1-0.4-0.2l-8.4-5.6c-0.3-0.1-0.4-0.3-0.5-0.6c-0.1-0.2-0.1-0.5-0.1-0.8
				l5.5-36.8c-0.4-0.4-0.8-0.8-1.2-1.3c-0.4-0.5-0.8-1-1.3-1.6c-0.8-1.1-1.4-2.2-1.9-3.1s-0.7-1.4-0.7-1.4c-0.3-0.5-0.4-1.1-0.4-1.6
				s0.2-1,0.5-1.5c0.3-0.4,0.6-0.8,1.1-1s1-0.4,1.7-0.4h13c0.6,0,1.2,0.1,1.6,0.4s0.9,0.6,1.1,1c0.3,0.4,0.4,0.9,0.5,1.5
				c0,0.5-0.1,1.1-0.4,1.6c0,0-0.2,0.5-0.7,1.4s-1.1,2-1.9,3.1c-0.4,0.6-0.8,1.1-1.2,1.6c-0.4,0.5-0.8,0.9-1.2,1.3L376.3,89.3
				L376.3,89.3z"/>
		</g>
	</g>
</g>
</svg>
