<svg id="Layer_1" xmlns="http://www.w3.org/2000/svg" xmlns:xlink="http://www.w3.org/1999/xlink" viewBox="0 0 51 51"><style>.st0{clip-path:url(#SVGID_2_);fill:#FFFFFF;} .st1{clip-path:url(#SVGID_2_);fill:none;stroke:#42AE58;stroke-width:2;} .st2{clip-path:url(#SVGID_2_);fill:#42AE58;}</style><defs><path id="SVGID_1_" d="M0 0h51v51H0z"/></defs><clipPath id="SVGID_2_"><use xlink:href="#SVGID_1_" overflow="visible"/></clipPath><path class="st0" d="M25.5 50C39 50 50 39 50 25.5S39 1 25.5 1 1 12 1 25.5 12 50 25.5 50"/><circle class="st1" cx="25.5" cy="25.5" r="24.5"/><path class="st2" d="M35.2 17.4c.8.6 1.2 1.5 1.2 2.6 0 1-.3 1.8-1 2.5-.6.7-1.7 1.3-3.2 1.9-1.3-.5-2.2-1-2.7-1.4s-1-.8-1.2-1.3c-.3-.5-.4-1.1-.4-1.7 0-1.1.4-2 1.2-2.6.8-.6 1.8-.9 3.1-.9 1.1-.1 2.2.2 3 .9m-7 10.2c.7-.8 1.9-1.5 3.6-2.1 2 .8 3.4 1.5 4.1 2.2.7.7 1.1 1.6 1.1 2.8 0 1.3-.5 2.3-1.4 3-.9.7-2.1 1.1-3.6 1.1s-2.7-.3-3.6-1c-.9-.7-1.3-1.7-1.3-2.9 0-1.3.4-2.3 1.1-3.1m.9-11.8c-.9.4-1.5 1-2 1.7s-.7 1.6-.7 2.5c0 1.1.3 2 .9 2.8.6.8 1.6 1.5 3.1 2.2-1.6.6-2.8 1.4-3.5 2.3-.8.9-1.1 1.9-1.1 3.1 0 1.8.5 3.1 1.6 4 1.1.9 2.6 1.4 4.6 1.4 1.9 0 3.5-.5 4.6-1.5 1.2-1 1.7-2.3 1.7-4 0-1.2-.4-2.3-1.1-3.1-.7-.9-1.9-1.6-3.7-2.4 1.4-.7 2.5-1.4 3.1-2.2.6-.8 1-1.7 1-2.7 0-1.5-.5-2.6-1.6-3.5-1-.9-2.4-1.3-4.1-1.3-.9.1-1.9.3-2.8.7m-11.7-.3h-1.2l-5.4 4.1.8 1c2.7-2.1 4.1-3.2 4.2-3.3l.4-.4c-.1 1.4-.2 2.8-.2 4.1v14.6h1.3V15.5z"/></svg>