<svg id="Layer_1" xmlns="http://www.w3.org/2000/svg" xmlns:xlink="http://www.w3.org/1999/xlink" viewBox="0 0 100 30"><style>.st0{clip-path:url(#SVGID_2_);fill:#858080;}</style><defs><path id="SVGID_1_" d="M0 0h100v30H0z"/></defs><clipPath id="SVGID_2_"><use xlink:href="#SVGID_1_" overflow="visible"/></clipPath><path class="st0" d="M82.7 17.5L85 8.1l2.5 9.4h-4.8zm-16.9-2.3c0 .8-.1 1.7-.4 2.5-.3.8-.7 1.6-1 2.1-.4.5-.7.8-1.1 1-.4.3-.9.5-1.3.6-.4.1-.7.2-1.1.2h-2.4V8.1h.9c.4 0 .9 0 1.5.1s1.3.4 1.8.6c.5.2.7.4 1.1.9.4.5.9 1.2 1.2 1.8.3.6.5 1.2.6 1.8.1.6.2 1.2.2 1.9m-53.6 2.3l2.2-9.3 2.7 9.3h-4.9zM91.2.2H78.1L74.6 14c0-.4 0-.8-.2-1.5-.1-.6-.3-1.4-.5-2.1-.2-.7-.4-1.2-.6-1.8-.3-.6-.6-1.2-1.1-1.9-.5-.7-1.1-1.5-1.7-2.1-.6-.6-1-1-1.6-1.5s-1.5-1-2.3-1.4c-.8-.4-1.7-.7-2.3-.9-.7-.2-1.2-.3-1.7-.4C62 .3 61.4.2 61 .2H50.1v16.5c-.2-.5-.4-1-.7-1.4-.4-.7-1-1.4-1.5-1.9-.6-.5-1.2-1-2.1-1.4s-2-.9-3.1-1.2c-1.1-.3-2.3-.5-3.5-.6l-1.8-.2c-.3 0-.6-.1-.9-.2-.3-.1-.5-.3-.7-.5-.2-.2-.2-.4-.3-.5-.1-.4 0-.8.2-1.1.1-.2.3-.3.5-.4.2-.1.4-.2.8-.2.4-.1 1.1-.1 1.8-.1s1.4.1 2.2.3c.8.2 1.7.4 2.4.6.7.2 1.2.4 1.7.6l3.3-6.2c-.4-.2-.8-.5-1.6-.7-.7-.3-1.8-.7-3-.9-1-.5-2.3-.7-3.6-.7-1.3 0-2.7.1-3.7.2s-1.7.2-2.6.6c-.9.3-2.1.8-3 1.4s-1.6 1.3-2 1.7c-.4.5-.6.7-.8 1.1-.2.4-.5.9-.8 1.5-.2.5-.4 1.1-.5 1.6-.2 1.1-.2 2.1 0 3.3.1.6.3 1.2.6 1.8.3.6.6 1.1 1 1.6s.7.8 1.1 1.1c.4.3.8.6 1.6 1s1.9.8 2.7 1.1c.8.3 1.4.4 2 .5.6.1 1.1.2 1.5.3.4.1.5.1.8.1.2 0 .5.1.8.1.3.1.5.2.7.4.2.2.3.4.4.6.1.2.1.4.1.7 0 .3-.1.6-.2.9-.1.3-.2.5-.5.6-.2.2-.5.4-.8.5-.3.1-.5.1-.9.1s-1-.1-1.4-.2c-.4-.1-.6-.2-.8-.3-.9-.4-1.8-.7-2.6-1.1-.9-.4-1.7-.9-2.5-1.3L28 23.8 20.8.2h-13L0 29.9h9.1l1.5-6.1H19l1.7 6.1h8.7l-.6-2.1c.2.1.5.2 1 .5.5.2 1.4.6 2.4.9 1.1.3 2.4.6 3.5.7 1.2.1 2.2.1 3.1 0 .9-.1 1.6-.2 2.3-.4 1.4-.4 2.7-.8 4.1-1.6.7-.4 1.4-.8 2-1.3.6-.5 1.1-1.1 1.5-1.5.4-.4.6-.7.8-1 .2-.3.4-.6.5-.9V30h11.3c.2 0 .4 0 .8-.1s1.1-.2 1.9-.4c.8-.2 1.8-.6 2.6-1s1.6-.8 2.3-1.3c.7-.4 1.2-.9 1.8-1.4.5-.5 1.1-1.1 1.6-1.7L71 29.9h8.6l1.6-6.1h8.2l1.9 6h8.6L91.2.2z"/></svg>