<svg id="Layer_1" xmlns="http://www.w3.org/2000/svg" xmlns:xlink="http://www.w3.org/1999/xlink" viewBox="0 0 90 27"><style>.st0{clip-path:url(#SVGID_2_);fill:#858080;}</style><defs><path id="SVGID_1_" d="M0 0h90v27H0z"/></defs><clipPath id="SVGID_2_"><use xlink:href="#SVGID_1_" overflow="visible"/></clipPath><path class="st0" d="M15.7 14.9c-.6-.2-1.6-.4-3-.4h-2.6v6.1h2.7c1.5 0 2.6-.1 3.1-.4.5-.2 1-.6 1.3-1.1.3-.5.5-1 .5-1.6 0-.6-.2-1.1-.5-1.6-.4-.4-.9-.8-1.5-1M15.1 11.2c.6-.5.9-1.3.9-2.2 0-1.9-1.2-2.8-3.6-2.8H10V12h1.8c1.6.1 2.6-.2 3.3-.8"/><path class="st0" d="M19.8 20.5c-.5.8-1.3 1.4-2.2 1.9-1 .5-2.2.7-3.7.7H7.3V3.8h5.1c1.6 0 2.9.2 3.8.6.9.4 1.6 1 2.1 1.8s.7 1.6.7 2.6c0 1.9-1 3.3-3 4.1 1.4.3 2.5.8 3.4 1.7.8.9 1.3 2 1.3 3.2-.1 1-.4 1.9-.9 2.7M0 27h27.2V0H0v27zM46.6 11.2c.6-.6.9-1.3.9-2.2 0-1.9-1.2-2.8-3.6-2.8h-2.4V12h1.8c1.6.1 2.7-.2 3.3-.8M47.2 14.9c-.6-.2-1.6-.4-3-.4h-2.6v6.1h2.7c1.5 0 2.5-.1 3.1-.4.5-.2 1-.6 1.3-1.1.3-.5.5-1 .5-1.6 0-.6-.2-1.1-.5-1.6-.4-.4-.9-.8-1.5-1"/><path class="st0" d="M51.3 20.5c-.5.8-1.3 1.4-2.2 1.9-1 .5-2.2.7-3.7.7h-6.6V3.8h5.1c1.6 0 2.9.2 3.8.6.9.4 1.6 1 2.1 1.8s.7 1.6.7 2.6c0 1.9-1 3.3-3 4.1 1.4.3 2.5.8 3.4 1.7.8.9 1.3 2 1.3 3.2-.1 1-.4 1.9-.9 2.7M31.4 27h27.2V0H31.4v27zM84.5 21.7c-2 1.1-4.4 1.7-7.1 1.7-2.2 0-4-.4-5.5-1.3s-2.7-2.1-3.6-3.6c-.9-1.5-1.3-3.2-1.3-4.9 0-2.8 1-5.2 3-7.1 2-1.9 4.5-2.9 7.5-2.9 2 0 4.3.5 6.8 1.6v3c-2.3-1.3-4.5-1.9-6.7-1.9s-4.1.7-5.5 2.1c-1.5 1.4-2.2 3.1-2.2 5.2s.7 3.9 2.2 5.2c1.4 1.4 3.3 2 5.5 2 2.4 0 4.7-.7 6.9-2.2v3.1zM62.8 27H90V0H62.8v27z"/></svg>