<svg id="Layer_1" xmlns="http://www.w3.org/2000/svg" xmlns:xlink="http://www.w3.org/1999/xlink" viewBox="0 0 90 43"><style>.st0{clip-path:url(#SVGID_2_);fill:#858080;}</style><defs><path id="SVGID_1_" d="M0 0h90v43H0z"/></defs><clipPath id="SVGID_2_"><use xlink:href="#SVGID_1_" overflow="visible"/></clipPath><path class="st0" d="M66.1.8c.3.7-1.5 2-3.8 2.9-2.4.9-4.5 1.1-4.8.5-.3-.7 1.5-2 3.8-2.9 2.4-1 4.6-1.2 4.8-.5"/><path class="st0" d="M66.1.8c.3.7-1.5 2-3.8 2.9-2.4.9-4.5 1.1-4.8.5-.3-.7 1.5-2 3.8-2.9 2.4-1 4.6-1.2 4.8-.5M88.4 17.3c-.1 1.7-.8 3-2 3.6-2.3 1.2-5.6-.8-7.4-4.4-1.1-2.2-1.4-4.5-.9-6.2l.6.6c3.8 3.6 7.6 6 9.7 6.4z"/><path class="st0" d="M88.4 17.3c-.1 1.7-.8 3-2 3.6-2.3 1.2-5.6-.8-7.4-4.4-1.1-2.2-1.4-4.5-.9-6.2l.6.6c3.8 3.6 7.6 6 9.7 6.4z"/><path class="st0" d="M88.4 17.3c-2.1-.4-5.9-2.8-9.7-6.3l-.6-.6c.3-1.1.9-2 1.8-2.4 2.3-1.2 5.6.8 7.4 4.4.8 1.6 1.2 3.4 1.1 4.9z"/><path class="st0" d="M88.4 17.3c-2.1-.4-5.9-2.8-9.7-6.3l-.6-.6c.3-1.1.9-2 1.8-2.4 2.3-1.2 5.6.8 7.4 4.4.8 1.6 1.2 3.4 1.1 4.9z"/><path class="st0" d="M88.4 17.3c.1-1.5-.2-3.3-1.1-5-1.8-3.6-5.1-5.5-7.4-4.4-.9.5-1.5 1.3-1.8 2.4-4.6-4.4-7.4-8.9-6.2-10.1.2-.2.6-.2 1.2-.2 8.1 1.5 14.6 7.6 16.8 15.5.2.7.1 1.2-.1 1.5-.3.3-.8.4-1.4.3z"/><path class="st0" d="M88.4 17.3c.1-1.5-.2-3.3-1.1-5-1.8-3.6-5.1-5.5-7.4-4.4-.9.5-1.5 1.3-1.8 2.4-4.6-4.4-7.4-8.9-6.2-10.1.2-.2.6-.2 1.2-.2 8.1 1.5 14.6 7.6 16.8 15.5.2.7.1 1.2-.1 1.5-.3.3-.8.4-1.4.3zM68.9 34c5.4-.3 9.6-4.8 9.6-10.2 0-5.7-4.5-10.2-10.2-10.2-2 0-3.8.6-5.4 1.5 1 1.4 1.9 3 2.8 5 1.7 3.9 3.4 9.3 3.2 13.9"/><path class="st0" d="M68.9 34c5.4-.3 9.6-4.8 9.6-10.2 0-5.7-4.5-10.2-10.2-10.2-2 0-3.8.6-5.4 1.5 1 1.4 1.9 3 2.8 5 1.7 3.9 3.4 9.3 3.2 13.9"/><path class="st0" d="M61.3 37.9c1.6-.6 4.3-1.1 7.2-1.4.1-.3.2-.7.2-1.1.1-.5.1-1 .2-1.4h-.6c-5.6 0-10.2-4.6-10.2-10.2 0-3.7 1.9-6.9 4.8-8.7-2.2-3.1-4.5-4.8-5.6-5.5-2.1-1.2-5.3-2-7.3 2.1-1.5 2.9-2.3 6.2-2.3 9.7 0 8.6 5 16 12.2 19.6-1.5-.9-2-1.8 1.4-3.1"/><path class="st0" d="M61.3 37.9c1.6-.6 4.3-1.1 7.2-1.4.1-.3.2-.7.2-1.1.1-.5.1-1 .2-1.4h-.6c-5.6 0-10.2-4.6-10.2-10.2 0-3.7 1.9-6.9 4.8-8.7-2.2-3.1-4.5-4.8-5.6-5.5-2.1-1.2-5.3-2-7.3 2.1-1.5 2.9-2.3 6.2-2.3 9.7 0 8.6 5 16 12.2 19.6-1.5-.9-2-1.8 1.4-3.1"/><path class="st0" d="M58.2 23.7c0 5.6 4.5 10.2 10.2 10.2h.6c.2-4.5-1.4-10-3.1-13.9-.8-2-1.8-3.6-2.8-5-3 1.8-4.9 5.1-4.9 8.7"/><path class="st0" d="M58.2 23.7c0 5.6 4.5 10.2 10.2 10.2h.6c.2-4.5-1.4-10-3.1-13.9-.8-2-1.8-3.6-2.8-5-3 1.8-4.9 5.1-4.9 8.7M78.7 36.4c-2.4-.4-6.5-.3-10.2.1-1.4 6.1-5.1 5.8-7.2 5-.5-.2-.9-.4-1.4-.6 2.8 1.4 6 2.1 9.3 2.1 4.5 0 8.8-1.4 12.2-3.8 1.4-1 1.6-2.1-2.7-2.8"/><path class="st0" d="M78.7 36.4c-2.4-.4-6.5-.3-10.2.1-1.4 6.1-5.1 5.8-7.2 5-.5-.2-.9-.4-1.4-.6 2.8 1.4 6 2.1 9.3 2.1 4.5 0 8.8-1.4 12.2-3.8 1.4-1 1.6-2.1-2.7-2.8"/><path class="st0" d="M68.5 36.5c-2.9.3-5.6.8-7.2 1.4-3.4 1.3-2.9 2.2-1.4 2.9.5.2.9.4 1.4.6 2.1.9 5.8 1.2 7.2-4.9"/><path class="st0" d="M68.5 36.5c-2.9.3-5.6.8-7.2 1.4-3.4 1.3-2.9 2.2-1.4 2.9.5.2.9.4 1.4.6 2.1.9 5.8 1.2 7.2-4.9M19 22.7c3.5-2.1 2.8-8.5-3.5-8.5H1.9c-1.1 0-1.9.9-1.9 1.9v15C0 32.2.9 33 1.9 33h11.9c9.4.1 10.6-8.3 5.2-10.3M7.1 17.2h7.3c4.2 0 4 4.6-.6 4.6H7.1v-4.6zM13 29.9H7.1v-5.2h7.6c4.2 0 4.3 5.2-1.7 5.2"/><path class="st0" d="M42.9 14.3H23.2c-.9 0-1.8.7-1.8 1.6 0 .9.9 1.6 1.8 1.6h6.6v13.8c0 1.1.9 1.9 1.9 1.9h3.1c1.1 0 1.9-.9 1.9-1.9V17.4H43c.9 0 1.7-.7 1.7-1.6 0-.8-.9-1.5-1.8-1.5"/></svg>