<svg id="Layer_1" xmlns="http://www.w3.org/2000/svg" xmlns:xlink="http://www.w3.org/1999/xlink" viewBox="0 0 200 200"><style>.st0{clip-path:url(#SVGID_2_);fill:#9A2F99;} .st1{clip-path:url(#SVGID_2_);fill:#7C3179;} .st2{clip-path:url(#SVGID_2_);fill:#FFFFFF;}</style><defs><path id="SVGID_1_" d="M0 0h200v200H0z"/></defs><clipPath id="SVGID_2_"><use xlink:href="#SVGID_1_" overflow="visible"/></clipPath><path class="st0" d="M100 200c55.2 0 100-44.8 100-100S155.2 0 100 0 0 44.8 0 100s44.8 100 100 100"/><path class="st1" d="M193.3 136L123 75.5l-44 54 61.8 61.8c24-10.7 43-30.7 52.5-55.3"/><path class="st0" d="M111 67.5l13 13 .4 2-3.4 4 3.9 2 .2 3 .5 4-7.2 9L95 126.9l-4 1.6-6-3-3-1-2 2.4s-7-5.4-7-6.4 1-6 1-6-2-2-3-2h-7v-4l42-41.4 2-.4 3 .8z"/><path class="st2" d="M92 125.1l31.8-31.8c.4-.4.7-.9.7-1.5s-.2-1.1-.7-1.5l-1.8-1.8-25.8 25.8c-.2.2-.5.3-.7.4-.2.1-.5.2-.8.2H78.8L89 125.1c.4.4.9.6 1.5.6s1.1-.2 1.5-.6m-11.9-.6l1.2-1.2-5.5-5.4-1.2 1.2 5.5 5.4zM108 69l-41.8 41.8h27.6l27.9-27.9c.4-.4.7-.9.7-1.5s-.2-1.1-.7-1.5L110.9 69c-.2-.2-.4-.4-.7-.5-.3-.1-.5-.2-.8-.2-.3 0-.5.1-.8.2-.3.1-.5.2-.6.5m30.8 45.9c.6 0 1.1.2 1.5.6.4.4.6.9.6 1.5v16.7c0 .6-.2 1.1-.6 1.5-.4.4-.9.6-1.5.6-.5 0-1-.2-1.4-.6-.4-.4-.6-.9-.6-1.5v-6.2h-14.7c-2.9 0-5.4-1-7.4-3.1-2.1-2.1-3.1-4.5-3.1-7.4v-5.5L95 128.1c-.6.6-1.3 1.1-2.1 1.4-.8.3-1.6.5-2.3.5-.8 0-1.6-.2-2.4-.5-.8-.3-1.5-.8-2.1-1.4l-1.8-1.8-2.7 2.7c-.2.2-.5.3-.7.4-.2.1-.5.2-.8.2-.3 0-.5-.1-.8-.2-.3-.1-.5-.2-.7-.4l-8.4-8.4c-.4-.4-.6-.9-.6-1.4 0-.6.2-1.1.6-1.5l2.7-2.7H61.1c-.4 0-.8-.1-1.1-.4-.3-.2-.6-.6-.7-.9-.2-.4-.2-.8-.1-1.2.1-.4.3-.8.5-1.1L105 66c.6-.6 1.3-1.1 2.1-1.4.8-.3 1.6-.5 2.4-.5.8 0 1.6.2 2.4.5.8.3 1.4.8 2.1 1.4l10.9 10.8c1.1 1.2 1.8 2.6 1.8 4.3.1 1.7-.5 3.1-1.6 4.4l1.8 1.8c1.3 1.3 1.9 2.7 1.9 4.5 0 1.7-.6 3.2-1.9 4.5l-11.1 11.1v9.7c0 1.7.6 3.2 1.8 4.4 1.2 1.2 2.7 1.8 4.5 1.8h14.7V117c0-.6.2-1.1.6-1.5.4-.4.8-.6 1.4-.6m-27.2-35.7c0-.6-.2-1.1-.6-1.5-.4-.4-.9-.6-1.5-.6s-1.1.2-1.5.6c-.4.4-.6.9-.6 1.5 0 .5.2 1 .6 1.4.4.4.9.6 1.5.6s1.1-.2 1.5-.6c.4-.4.6-.8.6-1.4"/></svg>