<svg id="Layer_1" xmlns="http://www.w3.org/2000/svg" viewBox="0 0 180 180"><style>.st0{fill-rule:evenodd;clip-rule:evenodd;fill:#42AF58;}</style><path class="st0" d="M91.6 0C42.8 0 3.3 39.3 3.3 87.7c0 16.6 4.6 32.1 12.7 45.3L0 180l48.9-15.5c12.7 6.9 27.2 10.9 42.7 10.9 48.8 0 88.4-39.3 88.4-87.7C180 39.3 140.4 0 91.6 0zm0 160.7c-14.9 0-28.9-4.4-40.5-12.1l-28.3 9 9.2-27.1c-8.8-12-14-26.8-14-42.8 0-40.3 33-73 73.6-73 40.6 0 73.6 32.7 73.6 73 0 40.2-33 73-73.6 73zm41.5-53.1c-2.2-1.2-13.1-7-15.1-7.9-2-.8-3.5-1.2-5.1.9-1.6 2.2-6.1 7.1-7.5 8.5-1.4 1.4-2.7 1.6-4.9.4-2.2-1.2-9.4-3.8-17.7-11.8-6.5-6.2-10.7-13.7-12-16-1.2-2.3 0-3.5 1.2-4.5 1.1-1 2.4-2.5 3.5-3.8 1.2-1.3 1.6-2.2 2.4-3.6.8-1.5.5-2.8 0-3.9S73.3 53.6 71.6 49c-1.7-4.5-3.6-3.9-4.9-3.9-1.3 0-2.8-.3-4.3-.3-1.5-.1-4 .4-6.1 2.6-2.2 2.2-8.2 7.4-8.6 18.4-.4 11 7.3 22 8.3 23.5 1.1 1.5 14.7 25.4 37.3 35.2 22.6 9.8 22.7 6.8 26.9 6.6 4.1-.2 13.5-4.9 15.6-10.1 2.1-5.2 2.2-9.6 1.7-10.6-.7-1-2.2-1.6-4.4-2.8z"/></svg>