<svg id="Layer_1" xmlns="http://www.w3.org/2000/svg" xmlns:xlink="http://www.w3.org/1999/xlink" viewBox="0 0 200 200"><style>.st0{clip-path:url(#SVGID_2_);fill:#FF812E;} .st1{clip-path:url(#SVGID_2_);fill:#CA6F2D;} .st2{fill:#FF812E;} .st3{clip-path:url(#SVGID_4_);fill:#FFFFFF;}</style><defs><path id="SVGID_1_" d="M0 0h200v200H0z"/></defs><clipPath id="SVGID_2_"><use xlink:href="#SVGID_1_" overflow="visible"/></clipPath><path class="st0" d="M100 200c55.2 0 100-44.8 100-100S155.2 0 100 0 0 44.8 0 100s44.8 100 100 100"/><path class="st1" d="M197.5 122.3l-70.9-56-54.3 61 72.2 62.3c26.5-13.2 46.3-37.8 53-67.3"/><path class="st2" d="M72.2 126.2h37.6l14.4 7.7V66.2l-14.4 9-37.6-2.8z"/><g><defs><path id="SVGID_3_" d="M0 0h200v200H0z"/></defs><clipPath id="SVGID_4_"><use xlink:href="#SVGID_3_" overflow="visible"/></clipPath><path class="st3" d="M109.6 120.7c.5 0 .9-.2 1.3-.6.4-.4.6-.8.6-1.3V115c0-.5-.2-1-.6-1.4-.4-.4-.8-.6-1.3-.6s-1 .2-1.4.6c-.4.4-.6.8-.6 1.4v3.8c0 .5.2.9.6 1.3.4.4.9.6 1.4.6m0-11.3c.5 0 .9-.2 1.3-.6.4-.4.6-.8.6-1.4v-3.8c0-.5-.2-1-.6-1.4-.4-.4-.8-.6-1.3-.6s-1 .2-1.4.6c-.4.4-.6.8-.6 1.4v3.8c0 .5.2 1 .6 1.4.4.4.9.6 1.4.6m0-11.3c.5 0 .9-.2 1.3-.6.4-.4.6-.8.6-1.3v-3.8c0-.5-.2-.9-.6-1.3-.4-.4-.8-.6-1.3-.6s-1 .2-1.4.6c-.4.4-.6.8-.6 1.3v3.8c0 .5.2.9.6 1.3.4.4.9.6 1.4.6m0-11.3c.5 0 .9-.2 1.3-.6.4-.4.6-.8.6-1.4V81c0-.5-.2-1-.6-1.4-.4-.4-.8-.6-1.3-.6s-1 .2-1.4.6c-.4.4-.6.8-.6 1.4v3.8c0 .5.2 1 .6 1.4.4.4.9.6 1.4.6m-8.1 11.9c.3.3.5.8.5 1.3s-.2 1-.5 1.4l-7.6 7.5c-.1.2-.3.3-.6.4-.2.1-.5.1-.7.1-.2 0-.5 0-.7-.1-.2-.1-.4-.2-.6-.4-.3-.3-.5-.8-.5-1.3s.2-1 .5-1.4l4.3-4.3H79.4c-.5 0-1-.2-1.4-.6-.4-.4-.6-.8-.6-1.3s.2-1 .6-1.4c.4-.4.8-.6 1.4-.6h16.2l-4.3-4.3c-.3-.4-.5-.8-.5-1.4s.2-1 .5-1.4c.4-.3.8-.5 1.4-.5s.9.2 1.3.5l7.5 7.8zm-27.8 25.8V75.4H110c.1 0 .3-.1.4-.2l12.4-6.2v61.8l-12.4-6.2c-.1 0-.3-.1-.4-.1H73.7zm51 11.3c.2 0 .4 0 .6-.1.2 0 .3-.1.5-.2.3-.1.5-.4.7-.7.1-.3.2-.6.2-.9V66c0-.3-.1-.7-.2-.9-.1-.3-.4-.5-.7-.7l-.9-.3c-.3 0-.6 0-.9.2l-14.7 7.4H71.9c-.5 0-1 .2-1.4.6-.3.3-.5.7-.5 1.2v52.9c0 .5.2 1 .6 1.4.4.4.8.6 1.4.6h37.3l14.7 7.3c.1.1.3.2.4.2 0-.1.1-.1.3-.1"/></g></svg>