<svg id="Layer_1" xmlns="http://www.w3.org/2000/svg" viewBox="0 0 186 134"><style>.st0{fill:#3B954C;} .st1{fill:#FFFFFF;}</style><path class="st0" d="M29.4 1.6L17 8.2l-6 5-3 4.9-5 9-2 12.4 5.2 14.8 79.5 79.3h100L61.9 10.2l-9-5-13-4z"/><path class="st1" d="M37.3 66.4c.6 0 1-.2 1.4-.6.4-.4.6-.8.6-1.4v-3.9c0-.6-.2-1-.6-1.4-.4-.4-.8-.6-1.4-.6-.5 0-1 .2-1.3.6-.4.4-.6.8-.6 1.4v3.9c0 .6.2 1 .6 1.4.3.4.8.6 1.3.6m0-11.6c.6 0 1-.2 1.4-.6.4-.4.6-.8.6-1.3v-6c2.2-.2 4.2-.8 6.1-1.8s3.5-2.3 4.9-3.8c1.4-1.5 2.5-3.3 3.3-5.3.8-2 1.2-4.1 1.2-6.4 0-2.4-.5-4.6-1.4-6.7-.9-2.1-2.2-4-3.8-5.6-1.6-1.6-3.5-2.8-5.6-3.8-2.1-.9-4.4-1.4-6.8-1.4-2.4 0-4.6.5-6.8 1.4-2.1.9-4 2.2-5.6 3.8-1.6 1.6-2.9 3.4-3.8 5.6-.9 2.1-1.4 4.4-1.4 6.7 0 .6.2 1 .6 1.4.4.4.8.6 1.4.6.5 0 1-.2 1.3-.6.4-.4.6-.8.6-1.4 0-3.7 1.3-6.9 4-9.6 2.7-2.7 5.9-4 9.6-4 3.8 0 7 1.3 9.7 4 2.7 2.7 4 5.8 4 9.6s-1.3 7-4 9.7c-2.7 2.7-5.9 4-9.7 4-.5 0-1 .2-1.3.6-.4.4-.6.8-.6 1.3V53c0 .5.2.9.6 1.3.5.3 1 .5 1.5.5m0 15.5c4.6 0 8.9-.9 12.9-2.6 4-1.7 7.5-4.1 10.5-7.1s5.4-6.5 7.1-10.5c1.7-4 2.6-8.3 2.6-12.8s-.9-8.8-2.6-12.8c-1.7-4-4.1-7.5-7.1-10.5s-6.5-5.3-10.5-7c-4-1.7-8.3-2.6-12.9-2.6s-8.8.9-12.9 2.6c-4 1.7-7.5 4.1-10.5 7-3 3-5.4 6.5-7.1 10.5-1.7 4-2.6 8.3-2.6 12.8s.9 8.8 2.6 12.8c1.7 4 4.1 7.5 7.1 10.5s6.5 5.3 10.5 7.1c4 1.7 8.3 2.6 12.9 2.6m26.1-59c1.8 1.7 3.3 3.6 4.7 5.6 1.3 2 2.5 4.1 3.4 6.3.9 2.2 1.6 4.5 2.1 6.9.5 2.4.7 4.8.7 7.3s-.2 4.9-.7 7.2c-.5 2.3-1.2 4.6-2.1 6.9-.9 2.2-2 4.3-3.4 6.3-1.3 2-2.9 3.9-4.7 5.6-1.7 1.7-3.6 3.2-5.6 4.6-2 1.3-4.1 2.5-6.3 3.4-2.2.9-4.5 1.6-6.9 2.1-2.4.5-4.8.7-7.3.7-2.4 0-4.8-.2-7.2-.7-2.4-.5-4.7-1.2-6.9-2.1-2.2-.9-4.3-2.1-6.3-3.4-2-1.3-3.9-2.9-5.7-4.6-1.7-1.8-3.3-3.7-4.6-5.6-1.3-2-2.5-4.1-3.4-6.3-.9-2.2-1.6-4.5-2.1-6.9-.5-2.4-.7-4.8-.7-7.2 0-2.5.2-4.9.7-7.3.5-2.4 1.2-4.7 2.1-6.9.9-2.2 2-4.3 3.4-6.3 1.3-2 2.9-3.9 4.6-5.6C13 9.5 14.9 8 16.9 6.6c2-1.3 4.1-2.5 6.3-3.4 2.2-.9 4.5-1.6 6.9-2.1 2.4-.5 4.8-.7 7.2-.7 2.5 0 4.9.2 7.3.7 2.4.5 4.7 1.2 6.9 2.1 2.2.9 4.3 2 6.3 3.4 2 1.3 3.9 2.9 5.6 4.7"/></svg>