<svg id="Layer_1" xmlns="http://www.w3.org/2000/svg" xmlns:xlink="http://www.w3.org/1999/xlink" viewBox="0 0 33 28"><style>.st0{clip-path:url(#SVGID_2_);fill:#42AF58;}</style><defs><path id="SVGID_1_" d="M0 0h33v28H0z"/></defs><clipPath id="SVGID_2_"><use xlink:href="#SVGID_1_" overflow="visible"/></clipPath><path class="st0" d="M31.4 25.5V7.4c0-.2-.1-.4-.2-.6-.2-.2-.4-.2-.6-.2h-28c-.4 0-.6 0-.7.2-.2.2-.3.4-.3.6v18.1c0 .2.1.4.2.6.2.2.4.2.6.2h28c.2 0 .4-.1.6-.2.3-.1.4-.3.4-.6M11.5 2.4v2.5h9.9V2.4c0-.2-.1-.4-.2-.6-.2-.2-.4-.2-.6-.2h-8.3c-.2 0-.4.1-.6.2-.1.2-.2.4-.2.6m19 2.5c.7 0 1.3.2 1.8.7.5.5.7 1.1.7 1.8v18.1c0 .7-.2 1.3-.7 1.8-.5.5-1.1.7-1.8.7h-28c-.7 0-1.3-.2-1.8-.7-.5-.5-.7-1.1-.7-1.8V7.4c0-.7.2-1.3.7-1.8.5-.5 1.1-.7 1.8-.7h7.4V2.4c0-.7.2-1.2.7-1.7.5-.5 1.1-.7 1.8-.7h8.3c.7 0 1.3.2 1.8.7.5.5.7 1.1.7 1.7v2.5h7.3zM14.9 21.4v-2.5c0-.2-.1-.4-.2-.6-.2-.2-.4-.2-.6-.2h-2.5v-3.3H14c.2 0 .4-.1.6-.2.2-.2.2-.3.2-.6v-2.5h3.3V14c0 .2.1.4.2.6.2.2.4.2.6.2h2.5v3.3H19c-.2 0-.4.1-.6.2-.2.2-.2.3-.2.6v2.5h-3.3zM19 23c.2 0 .4-.1.6-.2.2-.2.2-.3.2-.6v-2.5h2.5c.2 0 .4-.1.6-.2.2-.2.2-.4.2-.6V14c0-.2-.1-.4-.2-.6-.2-.2-.4-.2-.6-.2h-2.5v-2.5c0-.2-.1-.4-.2-.6-.2-.1-.4-.2-.6-.2h-5c-.2 0-.4.1-.6.2-.2.2-.2.3-.2.6v2.5h-2.5c-.2 0-.4.1-.6.2-.1.2-.2.4-.2.6v4.9c0 .2.1.4.2.6.2.2.4.2.6.2h2.5v2.5c0 .2.1.4.2.6.2.2.4.2.6.2h5z"/></svg>