<svg id="Layer_1" xmlns="http://www.w3.org/2000/svg" xmlns:xlink="http://www.w3.org/1999/xlink" viewBox="0 0 70 48"><style>.st0{clip-path:url(#SVGID_2_);fill:#858080;} .st1{fill:#858080;} .st2{clip-path:url(#SVGID_4_);fill:#858080;}</style><defs><path id="SVGID_1_" d="M0 0h70v48H0z"/></defs><clipPath id="SVGID_2_"><use xlink:href="#SVGID_1_" overflow="visible"/></clipPath><path class="st0" d="M41.8 17.3c0 .9-.2 1.9-.9 2.8h1.8V6h-5.9v5.8c3.2.9 5 3 5 5.5"/><path class="st0" d="M31.6 11.3c1.3 0 2.6.3 3.5.6-2-.3-5.1.2-6.7 1.4v6.9h5.9v-7.8c1.3.2 2.2.7 2.8 1.1v6.7h1.3c-1.2 1.3-3.4 2.2-5.4 1.9v.3c5.6.4 7.9-2.2 7.9-5.2 0-3.5-3.3-5.5-6.7-6V6h-5.9v5.2c-3.8.8-7.5 3-7.5 6.7 0 5.7 8 9.3 15 9.3 10.6 0 18.8-5.1 18.8-12.3C54.8 6.2 43 0 33.7 0 23 0 15.2 6.7 15.2 13.9c0 3.7 2.1 6.8 4.7 9l.2-.1c-2.1-1.7-4-4.4-4-8.2.6-7.9 10.3-12.3 19-12.3 6.1 0 17.1 1.4 17.1 11.6 0 5.3-5.7 12.2-17.7 12.2-6.1 0-10.9-3.3-10.9-8 0-3.9 3.3-6.8 8-6.8"/><path class="st1" d="M8.9 31.9v.8H11V39H5.5v-6.3h2.1v-.8H0v.8h1.9v14.2H0v.8h7.6v-.8H5.5V40H11v6.9H8.9v.8h7.5v-.8h-1.9V32.7h1.9v-.8zM17.6 36.4v.8h1.8v9.7h-1.8v.8h7v-.8h-1.7V36.4h-5.3zm1.7-2.6h3.4v-1.9h-3.4v1.9zM25.3 29.9v.8h1.9v16.2h-1.9v.8h7.2v-.8h-1.8v-17z"/><g><defs><path id="SVGID_3_" d="M0 0h70v48H0z"/></defs><clipPath id="SVGID_4_"><use xlink:href="#SVGID_3_" overflow="visible"/></clipPath><path class="st2" d="M37.8 47.7c-1.9 0-2.9-1-2.9-2.4v-8.1h-1.8v-.8h1.8v-4.5h3.2v4.5h2.7v.8h-2.7v9.7h2.7v.8h-3zM50 38.2c-.4-1-1.2-1.4-2.3-1.4-2.7 0-2.7 2.7-2.7 5.1 0 3.2.3 3.8.5 4.2.3.6 1.1 1.2 2.3 1.2 2.7 0 2.7-2.9 2.7-5.5-.2-2.9-.3-3.2-.5-3.6m3.7 6.1c-.4 1.1-2 3.7-5.9 3.7-4.4 0-6.6-3-6.6-6 0-4.2 3.7-5.9 6.5-5.9 2.5 0 6.1 1.5 6.4 5.8 0 .7-.1 1.6-.4 2.4M63.2 47.7v-.8h1.5v-6.7c0-1.5 0-3-1.7-3-.9 0-2.5.9-2.8 2.5-.1.5-.1 1-.1 2.2v5h1.7v.8h-7v-.8h1.8v-9.7h-1.8v-.8h5.3v1.7c.6-.7 1-1.2 2.2-1.7.8-.3 1.5-.4 2.1-.4.2 0 .8 0 1.6.2 2.2.6 2.3 2.3 2.3 3.5v7.2H70v.8h-6.8z"/></g><path class="st1" d="M53.7 26.8l.7-1.8h.3v2.2h-.3v-1.7l-.6 1.7h-.2l-.7-1.7v1.7h-.3V25h.4l.7 1.8zm-2.4-1.6h-.6V25h1.4v.2h-.6v2h-.3v-2z"/></svg>