<svg id="Layer_1" xmlns="http://www.w3.org/2000/svg" xmlns:xlink="http://www.w3.org/1999/xlink" viewBox="0 0 185 133"><style>.st0{fill:#3B954C;} .st1{clip-path:url(#SVGID_2_);fill:#FFFFFF;}</style><path class="st0" d="M25.2 3.8l-6.7 3.4-4.8 9.6v13.5l18.2 43.2L91.7 133H174L65.5 22.6 49.2 6.3l-1.5-1-9.1-2.5L31 1.5z"/><defs><path id="SVGID_1_" d="M11.4 0H174v133H11.4z"/></defs><clipPath id="SVGID_2_"><use xlink:href="#SVGID_1_" overflow="visible"/></clipPath><path class="st1" d="M33.8 15c2 0 3.8.7 5.3 2.2 1.5 1.5 2.2 3.2 2.2 5.3 0 2.1-.7 3.9-2.2 5.3-1.5 1.5-3.2 2.2-5.3 2.2s-3.8-.7-5.3-2.2c-1.5-1.5-2.2-3.2-2.2-5.3 0-2 .7-3.8 2.2-5.3 1.5-1.5 3.3-2.2 5.3-2.2m0 18.7c3.1 0 5.8-1.1 8-3.3 2.2-2.2 3.3-4.9 3.3-8 0-3.1-1.1-5.7-3.3-7.9-2.2-2.2-4.9-3.3-8-3.3-3.1 0-5.8 1.1-8 3.3-2.2 2.2-3.3 4.8-3.3 7.9 0 3.1 1.1 5.8 3.3 8 2.3 2.2 4.9 3.3 8 3.3m0-30c2.6 0 5 .5 7.3 1.5s4.3 2.3 6 4c1.7 1.7 3 3.7 4 5.9 1 2.3 1.5 4.7 1.5 7.3 0 3.1-.3 6.1-.9 9.2-.6 3-1.4 6-2.4 8.9-1 2.9-2.1 5.7-3.3 8.3-1.2 2.6-2.4 5-3.5 7.1-1.7 3.2-3.4 6-4.9 8.4-1.6 2.4-2.8 4.3-3.8 5.6-.9-1.3-2.2-3.2-3.8-5.6-1.6-2.4-3.2-5.2-4.9-8.3-1.2-2.1-2.4-4.5-3.5-7.2-1.2-2.6-2.3-5.4-3.3-8.3-1-2.9-1.8-5.8-2.4-8.9-.6-3.1-.9-6.1-.9-9.2 0-2.6.5-5 1.5-7.3s2.3-4.2 4-5.9c1.7-1.7 3.7-3 6-4s4.7-1.5 7.3-1.5m0 71.2c.3 0 .6-.1.8-.2.2-.1.5-.3.7-.5.1-.1 1.2-1.6 3.4-4.6 2.1-3 4.5-6.9 7.1-11.7 1.6-2.8 2.9-5.6 4.1-8.4 1.2-2.8 2.2-5.5 3.1-8.1 1.1-3.4 1.9-6.6 2.5-9.8.6-3.1.8-6.2.8-9 0-3.1-.6-6-1.8-8.7-1.2-2.7-2.8-5.1-4.8-7.1S45.3 3.2 42.6 2C39.9.6 37 0 33.8 0c-3.1 0-6 .6-8.7 1.8C22.4 3 20 4.6 18 6.6s-3.7 4.4-4.8 7.1c-1.2 2.7-1.8 5.6-1.8 8.7 0 2.9.3 5.9.8 9 .6 3.1 1.4 6.4 2.5 9.8.9 2.6 1.9 5.3 3.1 8.1 1.2 2.8 2.6 5.6 4.1 8.4 2.6 4.8 4.9 8.7 7.1 11.7 2.1 3 3.3 4.5 3.4 4.6.2.2.4.4.7.5.2.3.4.4.7.4"/></svg>