<svg id="Layer_1" xmlns="http://www.w3.org/2000/svg" xmlns:xlink="http://www.w3.org/1999/xlink" viewBox="0 0 90 36"><style>.st0{clip-path:url(#SVGID_2_);fill:#858080;}</style><defs><path id="SVGID_1_" d="M0 0h90v36H0z"/></defs><clipPath id="SVGID_2_"><use xlink:href="#SVGID_1_" overflow="visible"/></clipPath><path class="st0" d="M84.7 10c-1.5-.7-3.6-1.3-6.5-1.3-3.1 0-5.6.5-5.6 2.8 0 4.1 11.4 2.6 11.4 11.4 0 8-7.5 10.1-14.3 10.1-3 0-6.5-.7-9.1-1.5l1.8-5.9c1.5 1 4.7 1.7 7.2 1.7 2.4 0 6.3-.5 6.3-3.4 0-4.7-11.4-2.9-11.4-11.1 0-7.5 6.6-9.7 13.1-9.7 3.6 0 7 .4 9 1.3L84.7 10zM50.1 32.5L52.7 20h-9.3l-2.6 12.4H33l6.1-29H47l-2.3 11.1H54l2.3-11.1h7.9l-6.1 29h-8zm-29.9 0l-6.1-20.1H14L9.9 32.5H2.5l6.3-29h9.8l6 20.1h.1l4.1-20.1h7.4l-6.2 29h-9.8zM0 36h90V0H0v36z"/></svg>