<svg id="Layer_1" xmlns="http://www.w3.org/2000/svg" xmlns:xlink="http://www.w3.org/1999/xlink" viewBox="0 0 34 37"><style>.st0{clip-path:url(#SVGID_2_);fill:#221A1A;} .st1{clip-path:url(#SVGID_2_);fill:none;stroke:#FFFFFF;stroke-width:0.9952;} .st2{fill:#FFFFFF;} .st3{font-family:&amp;apos;OpenSans-Light&amp;apos;;} .st4{font-size:4.8787px;} .st5{font-family:&amp;apos;OpenSans-Bold&amp;apos;;}</style><defs><path id="SVGID_1_" d="M0 0h34v37H0z"/></defs><clipPath id="SVGID_2_"><use xlink:href="#SVGID_1_" overflow="visible"/></clipPath><path class="st0" d="M4.1 26L.3 31.9c-.6.9-.2 1.6 1 1.5h2.2c1.1 0 2.5.7 3 1.6l.9 1.3c.5.9 1.4 1 2 .1l4-5.8c-.9.4-1.8.5-2.3.3-1.1-.4-2.8-3.4-3.4-3.8-.5-.2-2.3-.6-3.6-1.1m26.5-6.7c.2-.7 2.7-3.1 2.7-4.3 0-1.2-2.5-3.6-2.7-4.3-.2-.7.3-4.1-.5-5-.7-.9-4.2-1.5-4.8-1.9-.6-.4-2.3-3.4-3.4-3.8-1.1-.4-4.4 1.2-5.1 1.2-.7 0-3.9-1.5-5.1-1.1-1.1.4-2.8 3.4-3.4 3.8-.6.4-4.1 1-4.8 2-.7.9-.2 4.3-.4 5-.2.7-2.7 3.2-2.7 4.3 0 1.2 2.5 3.6 2.7 4.3.2.7-.2 4.1.5 5 .7.9 4.2 1.5 4.8 1.9.6.4 2.3 3.4 3.4 3.8 1.1.4 4.4-1.2 5.1-1.2.7 0 4 1.5 5.1 1.1 1.1-.4 2.8-3.4 3.4-3.8.6-.4 4.1-1 4.8-2 .7-.9.2-4.3.4-5m3 12.6L29.8 26c-1.3.5-3.1.9-3.5 1.2-.6.4-2.3 3.4-3.4 3.8-.5.2-1.4.1-2.3-.3l4 5.8c.6.9 1.5.8 2-.1l.9-1.3c.5-.9 1.8-1.6 3-1.6h2.2c1 0 1.5-.7.9-1.6"/><path class="st1" d="M16.9 25.7c6.2 0 11.2-4.8 11.2-10.7 0-5.9-5-10.7-11.2-10.7S5.7 9 5.7 14.9c0 6 5 10.8 11.2 10.8z"/><text transform="matrix(1.04 0 0 1 10.6 12.64)" class="st2 st3 st4">EXAM</text><text transform="matrix(1.04 0 0 1 23.56 12.64)" class="st2 st3 st4"></text><text transform="matrix(1.04 0 0 1 8.83 18.5)" class="st2 st5 st4">PASS +</text></svg>