<svg id="Layer_1" xmlns="http://www.w3.org/2000/svg" xmlns:xlink="http://www.w3.org/1999/xlink" viewBox="0 0 200 200"><style>.st0{clip-path:url(#SVGID_2_);fill:#FF3366;} .st1{clip-path:url(#SVGID_2_);fill:#C43459;} .st2{fill:#FF3366;} .st3{clip-path:url(#SVGID_4_);fill:#FFFFFF;}</style><defs><path id="SVGID_1_" d="M0 0h200v200H0z"/></defs><clipPath id="SVGID_2_"><use xlink:href="#SVGID_1_" overflow="visible"/></clipPath><path class="st0" d="M100 200c55.2 0 100-44.8 100-100S155.2 0 100 0 0 44.8 0 100s44.8 100 100 100"/><path class="st1" d="M128.9 195.4l1.3-.1c30.8-9.7 55.1-34 65-64.7L137 72.4l-79 52.1 70.9 70.9z"/><path class="st2" d="M59.4 72.9h80.5v54H59.4z"/><g><defs><path id="SVGID_3_" d="M0 0h200v200H0z"/></defs><clipPath id="SVGID_4_"><use xlink:href="#SVGID_3_" overflow="visible"/></clipPath><path class="st3" d="M127.3 116.8c.5 0 1-.2 1.4-.6.4-.4.6-.9.6-1.5 0-.5-.2-1-.6-1.4-.4-.4-.9-.6-1.4-.6h-21c-.6 0-1.1.2-1.5.6-.4.4-.6.9-.6 1.4 0 .6.2 1.1.6 1.5.4.4.9.6 1.5.6h21zM83.2 87.4c1.1 0 2.1.4 3 1.2.8.8 1.2 1.8 1.2 3 0 1.1-.4 2.1-1.2 3-.8.8-1.8 1.2-3 1.2-1.1 0-2.1-.4-3-1.2-.8-.8-1.2-1.8-1.2-3 0-1.1.4-2.1 1.2-3 .9-.8 1.8-1.2 3-1.2m0 12.6c2.4 0 4.3-.8 6-2.5 1.6-1.6 2.5-3.6 2.5-5.9 0-2.4-.8-4.3-2.5-6-1.6-1.6-3.6-2.5-6-2.5-2.3 0-4.3.8-5.9 2.5-1.6 1.6-2.5 3.6-2.5 6 0 2.3.8 4.3 2.5 5.9 1.6 1.6 3.6 2.5 5.9 2.5m39.9 8.4c.5 0 1-.2 1.4-.6.4-.4.6-.9.6-1.5s-.2-1.1-.6-1.5c-.4-.4-.9-.6-1.4-.6h-16.8c-.6 0-1.1.2-1.5.6-.4.4-.6.9-.6 1.5s.2 1.1.6 1.5c.4.4.9.6 1.5.6h16.8zm0-8.4c.5 0 1-.2 1.4-.6.4-.4.6-.9.6-1.4 0-.6-.2-1.1-.6-1.5-.4-.4-.9-.6-1.4-.6h-16.8c-.6 0-1.1.2-1.5.6-.4.4-.6.9-.6 1.5 0 .5.2 1 .6 1.4.4.4.9.6 1.5.6h16.8zm4.2-8.4c.5 0 1-.2 1.4-.6.4-.4.6-.9.6-1.5 0-.5-.2-1-.6-1.4-.4-.4-.9-.6-1.4-.6h-21c-.6 0-1.1.2-1.5.6-.4.4-.6.9-.6 1.4 0 .6.2 1.1.6 1.5.4.4.9.6 1.5.6h21zm-52 21c.1-.2.1-.4.2-.6l.3-.6c.7-1 1.6-1.8 2.8-2.3 1.2-.5 2.7-.7 4.5-.7 1.8 0 3.2.2 4.5.7 1.2.5 2.2 1.3 2.8 2.3.2.2.3.4.4.6l.3.6H75.3zm18.4 4.2c.6 0 1.1-.2 1.5-.6.4-.4.6-.9.6-1.5v-.2c0-.3-.1-.9-.3-1.9-.2-1-.6-2.1-1.4-3.2-.8-1.2-2-2.4-3.7-3.5-1.7-1.1-4.1-1.7-7.3-1.7s-5.6.6-7.3 1.7c-1.7 1.1-2.9 2.3-3.7 3.5-.8 1.3-1.2 2.4-1.4 3.5-.1 1.1-.2 1.7-.2 1.8 0 .6.2 1.1.6 1.5.4.4.9.6 1.4.6h21.2zm-29.4-42h71.4c.6 0 1.1.2 1.5.6.4.4.6.9.6 1.5v46.2c0 .5-.2 1-.6 1.4-.4.4-.9.6-1.5.6H64.3c-.6 0-1.1-.2-1.5-.6-.4-.4-.6-.9-.6-1.4V76.9c0-.6.2-1.1.6-1.5.4-.4.9-.6 1.5-.6m71.4 54.6c1.8 0 3.2-.6 4.5-1.8 1.2-1.2 1.8-2.7 1.8-4.5V76.9c0-1.8-.6-3.2-1.8-4.5-1.2-1.2-2.7-1.8-4.5-1.8H64.3c-1.8 0-3.2.6-4.5 1.8-1.2 1.2-1.8 2.7-1.8 4.5v46.2c0 1.8.6 3.2 1.8 4.5 1.2 1.2 2.7 1.8 4.5 1.8h71.4z"/></g></svg>