<?xml version="1.0" encoding="utf-8"?>
<!-- Generator: Adobe Illustrator 19.1.0, SVG Export Plug-In . SVG Version: 6.00 Build 0)  -->
<svg version="1.1" id="Layer_1" xmlns="http://www.w3.org/2000/svg" xmlns:xlink="http://www.w3.org/1999/xlink" x="0px" y="0px"
	 viewBox="0 0 185 136" style="enable-background:new 0 0 185 136;" xml:space="preserve">
<style type="text/css">
	.st0{fill:#3B964C;}
	.st1{fill:#FFFFFF;}
</style>
<g>
	<polygon class="st0" points="28.8,8.4 17.2,11.4 11.2,16.4 8.3,21.3 3.3,30.2 1.3,42.6 12.9,55.9 7.9,65.8 8.9,70.2 15.9,66.6 
		85.6,136 185,136 61.6,14.4 52.6,11.4 38.7,8.4 	"/>
	<g>
		<g>
			<path class="st1" d="M0.8,71.9c-0.4-0.2-0.6-0.6-0.7-1.1C0,70.5,0,70.1,0.2,69.7c0.2-0.4,0.4-0.7,0.8-1c3.3-2,5.7-4.2,7.2-6.6
				c1.5-2.4,2.6-4.3,3.1-5.6c-1.8-1.4-3.4-2.8-4.8-4.4c-1.4-1.6-2.5-3.3-3.5-5c-0.9-1.8-1.7-3.6-2.2-5.5C0.3,39.6,0,37.7,0,35.7
				c0-2,0.3-4,0.8-5.9c0.5-1.9,1.2-3.8,2.2-5.6c1-1.7,2.1-3.3,3.4-4.9c1.3-1.6,2.9-3,4.6-4.3c1.7-1.4,3.6-2.5,5.6-3.6
				c2-1,4.1-1.9,6.3-2.6c2.2-0.7,4.5-1.2,6.8-1.6C32,7,34.3,6.8,36.8,6.8c2.5,0,4.9,0.2,7.2,0.5c2.3,0.4,4.6,0.9,6.8,1.6
				c2.2,0.7,4.3,1.6,6.3,2.6c2,1,3.8,2.2,5.6,3.6c1.7,1.3,3.2,2.7,4.6,4.3c1.3,1.6,2.5,3.2,3.4,4.9c1,1.8,1.8,3.7,2.3,5.6
				c0.5,1.9,0.8,3.9,0.8,5.9c0,2-0.3,3.9-0.8,5.8c-0.5,1.9-1.3,3.8-2.3,5.6c-0.9,1.8-2,3.4-3.4,4.9c-1.3,1.5-2.9,3-4.6,4.3
				c-1.7,1.4-3.6,2.5-5.6,3.6c-2,1-4.1,1.9-6.3,2.6c-2.2,0.7-4.5,1.2-6.8,1.6c-2.3,0.4-4.8,0.6-7.2,0.6c-2,0-3.9-0.1-5.9-0.4
				c-2-0.3-3.9-0.6-5.7-1.1c-0.9,0.6-2,1.3-3.5,2.2c-1.5,0.9-3.1,1.8-5,2.7c-2.9,1.4-5.5,2.5-8,3.2c-2.5,0.7-4.7,1.1-6.7,1.1
				C1.5,72.3,1.1,72.2,0.8,71.9z M24,12.6c-4,1.3-7.5,3.1-10.4,5.4c-3,2.3-5.3,4.9-7.1,8c-1.7,3-2.6,6.3-2.6,9.8
				c0,3.5,0.9,6.8,2.8,10.1c1.9,3.2,4.5,6,7.9,8.4c0.4,0.3,0.6,0.6,0.7,0.9c0.1,0.4,0.1,0.8,0,1.2c-0.2,0.8-0.8,2.2-1.7,4.3
				c-0.9,2.1-2.4,4.2-4.5,6.4c2.5-0.9,5.1-2,7.6-3.4c2.6-1.4,4.9-2.8,6.9-4.1c0.3-0.2,0.5-0.3,0.8-0.3c0.3,0,0.5,0,0.8,0
				c1.9,0.6,3.8,1,5.7,1.2c1.9,0.3,3.9,0.4,5.8,0.4c4.5,0,8.8-0.7,12.8-2c4-1.3,7.5-3.1,10.5-5.3c3-2.3,5.3-4.9,7.1-8
				c1.7-3.1,2.6-6.3,2.6-9.7c0-3.5-0.9-6.7-2.6-9.8c-1.7-3-4.1-5.7-7.1-8c-3-2.3-6.5-4.1-10.5-5.4c-4-1.3-8.3-2-12.8-2
				C32.2,10.6,28,11.3,24,12.6z"/>
		</g>
	</g>
</g>
</svg>
