<svg id="Layer_1" xmlns="http://www.w3.org/2000/svg" viewBox="0 0 119 59"><style>.st0{fill:#5997D0;} .st1{fill:#1D1D1B;}</style><path class="st0" d="M6.8 56c0 .9-.3 1.7-1 2.2-.7.5-1.7.8-2.9.8s-2.2-.2-2.9-.6v-1.6c.5.2 1 .4 1.5.5.5.1 1 .2 1.5.2.7 0 1.2-.1 1.5-.4.3-.3.5-.6.5-1s-.1-.7-.4-1c-.3-.3-.9-.6-1.9-1-1-.4-1.6-.8-2-1.3-.4-.5-.6-1.1-.6-1.8 0-.9.3-1.6.9-2.1.6-.5 1.5-.8 2.5-.8s2 .2 3 .7L6 50.2c-.9-.4-1.8-.6-2.5-.6-.6 0-1 .1-1.3.4-.3.2-.4.6-.4 1 0 .3.1.5.2.7.1.2.3.4.6.5.3.2.7.4 1.4.7.8.3 1.3.6 1.7.9.4.3.6.6.8.9.2.4.3.8.3 1.3zM14.8 58.9h-6V48.4h6v1.4h-4.3v2.9h4v1.4h-4v3.3h4.3v1.5zM21.6 49.7c-1 0-1.8.3-2.3 1-.6.7-.9 1.7-.9 2.9 0 1.3.3 2.3.8 2.9.5.7 1.3 1 2.4 1 .4 0 .9 0 1.3-.1s.9-.2 1.3-.3v1.5c-.8.3-1.8.5-2.8.5-1.5 0-2.7-.5-3.6-1.4-.8-.9-1.2-2.3-1.2-4 0-1.1.2-2 .6-2.9.4-.8 1-1.4 1.7-1.9.8-.4 1.7-.7 2.7-.7 1.1 0 2.1.2 3 .7l-.6 1.4c-.4-.2-.7-.3-1.1-.4-.5-.1-.9-.2-1.3-.2zM34.7 48.4v6.8c0 .8-.2 1.5-.5 2-.3.6-.8 1-1.5 1.3-.6.3-1.4.5-2.3.5-1.3 0-2.3-.3-3.1-1s-1.1-1.6-1.1-2.8v-6.8h1.7V55c0 .9.2 1.5.6 1.9.4.4 1 .6 1.9.6 1.6 0 2.4-.8 2.4-2.5v-6.6h1.9zM39.2 54.7v4.2h-1.7V48.4h3c1.4 0 2.4.3 3 .8.7.5 1 1.3 1 2.3 0 1.3-.7 2.2-2.1 2.8l3 4.6h-2l-2.5-4.2h-1.7zm0-1.5h1.2c.8 0 1.4-.1 1.7-.4.4-.3.5-.7.5-1.3 0-.6-.2-1-.6-1.3-.4-.3-1-.4-1.8-.4h-1.1v3.4zM46.9 58.9V48.4h1.7v10.5h-1.7zM55.1 58.9h-1.7v-9h-3.1v-1.5h7.9v1.5h-3.1v9zM62.8 53.2l2.5-4.8h1.9l-3.5 6.4v4.1H62v-4l-3.5-6.5h1.9l2.4 4.8z"/><g><path class="st1" d="M80.3 48.4v6.8c0 1.2-.4 2.1-1.1 2.8-.7.7-1.7 1-2.9 1s-2.2-.3-2.9-1c-.7-.7-1-1.6-1-2.9v-6.8h.7v6.8c0 1 .3 1.8.8 2.4.6.6 1.4.8 2.4.8s1.8-.3 2.3-.8c.6-.6.8-1.3.8-2.3v-6.9h.9zM90.3 58.9h-.9l-4.1-5.5-1.4 1.2v4.3h-.7V48.4h.7v5.5l1.2-1.2 4.1-4.3h.9l-4.3 4.4 4.5 6.1zM95.6 58.9V48.4h.7v9.8h5v.7h-5.7zM106 58.9h-.7v-9.8h-3.4v-.7h7.6v.7H106v9.8zM119 53.5c0 1.8-.5 3.1-1.4 4-.9.9-2.3 1.4-4.1 1.4H111V48.4h2.9c1.7 0 3 .4 3.8 1.3.9.9 1.3 2.1 1.3 3.8zm-.8 0c0-1.5-.4-2.6-1.2-3.4-.8-.8-1.9-1.1-3.4-1.1h-1.9v9.2h1.7c3.2 0 4.8-1.5 4.8-4.7z"/></g><g><path class="st1" d="M58.5 38.2h-.2c-.9-.3-1.8-.8-2.8-1.4-1-.6-2-1.3-3-2.2-1-.9-2-1.8-2.9-2.9-.9-1.1-1.8-2.2-2.7-3.4-.8-1.1-1.5-2.4-2.3-3.8-.8-1.5-1.5-3.1-2.1-4.9-.6-1.8-1.2-3.8-1.6-5.9-.4-2.1-.6-4.4-.6-6.9 0-.2.1-.5.3-.7.2-.2.4-.3.7-.3 1.4 0 2.9-.2 4.5-.6 1.6-.4 3.3-.9 4.8-1.5 1.6-.6 3.1-1.2 4.4-1.8 1.3-.6 2.3-1.2 3-1.7.3-.1.5-.2.6-.2s.4.1.5.1c.7.5 1.7 1.1 3 1.7 1.3.6 2.8 1.2 4.4 1.8 1.6.6 3.2 1.1 4.8 1.5 1.7.4 3.2.6 4.5.6.3 0 .5.1.7.3.2.2.3.4.3.7 0 2.5-.2 4.8-.6 6.9-.4 2.1-.9 4.1-1.6 5.9-.6 1.8-1.4 3.4-2.1 4.9s-1.6 2.7-2.3 3.8c-.9 1.2-1.8 2.4-2.7 3.4-1 1.1-1.9 2-2.9 2.9-1 .9-2 1.6-2.9 2.2-1 .6-1.9 1.1-2.8 1.4H58.6c0 .1-.1.1-.1.1zM43 13.8c.4 1.9.9 3.7 1.5 5.4.6 1.6 1.3 3.1 2 4.5.7 1.3 1.4 2.5 2.1 3.5.9 1.2 1.7 2.4 2.6 3.4.9 1 1.8 1.9 2.7 2.6.9.8 1.7 1.4 2.5 1.9s1.5.9 2.2 1.1c.7-.2 1.4-.6 2.2-1.1.8-.5 1.7-1.1 2.5-1.9.9-.8 1.8-1.6 2.7-2.6.9-1 1.8-2.1 2.6-3.4.7-1 1.4-2.2 2.1-3.5.7-1.3 1.4-2.8 2-4.5.6-1.6 1.1-3.4 1.5-5.4.4-1.9.6-4 .7-6.2-1.6-.1-3.1-.4-4.8-.8-1.6-.4-3.1-.9-4.3-1.3-1.4-.5-2.7-1-4-1.6-1.3-.6-2.4-1.2-3.3-1.7-.9.5-2 1.1-3.3 1.7-1.3.6-2.6 1.1-4 1.6-1.3.4-2.7.9-4.3 1.3-1.6.4-3.2.7-4.8.8.3 2.2.5 4.3.9 6.2z"/></g><g><path class="st0" d="M63 20.6c0 .9-.3 1.7-1 2.2-.7.5-1.6.8-2.8.8-1.2 0-2.2-.2-2.9-.6v-1.6c.5.2 1 .4 1.5.5.5.1 1 .2 1.5.2.7 0 1.2-.1 1.5-.4.3-.3.5-.6.5-1s-.1-.7-.4-1c-.3-.3-.9-.6-1.9-1-1-.4-1.6-.8-2-1.3-.4-.5-.6-1.1-.6-1.8 0-.9.3-1.6.9-2.1.6-.5 1.5-.8 2.5-.8s2 .2 3 .7l-.5 1.4c-.9-.4-1.8-.6-2.5-.6-.6 0-1 .1-1.3.4-.3.2-.4.6-.4 1 0 .3.1.5.2.7.1.2.3.4.6.5.3.2.7.4 1.4.7.8.3 1.3.6 1.7.9s.6.6.8.9c.1.4.2.8.2 1.3z"/></g></svg>